<?xml version="1.0" encoding="utf-8" standalone="no"?>
<!DOCTYPE svg PUBLIC "-//W3C//DTD SVG 1.1//EN"
  "http://www.w3.org/Graphics/SVG/1.1/DTD/svg11.dtd">
<!-- Created with matplotlib (http://matplotlib.org/) -->
<svg height="432pt" version="1.1" viewBox="0 0 648 432" width="648pt" xmlns="http://www.w3.org/2000/svg" xmlns:xlink="http://www.w3.org/1999/xlink">
 <defs>
  <style type="text/css">
*{stroke-linecap:butt;stroke-linejoin:round;}
  </style>
 </defs>
 <g id="figure_1">
  <g id="patch_1">
   <path d="M 0 432 
L 648 432 
L 648 0 
L 0 0 
z
" style="fill:#ffffff;"/>
  </g>
  <g id="axes_1">
   <g id="patch_2">
    <path d="M 84.24 388.8 
L 583.2 388.8 
L 583.2 8.64 
L 84.24 8.64 
z
" style="fill:#ffffff;"/>
   </g>
   <g id="matplotlib.axis_1">
    <g id="xtick_1">
     <g id="line2d_1">
      <defs>
       <path d="M 0 0 
L 0 3.5 
" id="m97d3bed339" style="stroke:#000000;stroke-width:0.8;"/>
      </defs>
      <g>
       <use style="stroke:#000000;stroke-width:0.8;" x="106.92" xlink:href="#m97d3bed339" y="388.8"/>
      </g>
     </g>
     <g id="text_1">
      <!-- 0 -->
      <defs>
       <path d="M 31.78125 66.40625 
Q 24.171875 66.40625 20.328125 58.90625 
Q 16.5 51.421875 16.5 36.375 
Q 16.5 21.390625 20.328125 13.890625 
Q 24.171875 6.390625 31.78125 6.390625 
Q 39.453125 6.390625 43.28125 13.890625 
Q 47.125 21.390625 47.125 36.375 
Q 47.125 51.421875 43.28125 58.90625 
Q 39.453125 66.40625 31.78125 66.40625 
z
M 31.78125 74.21875 
Q 44.046875 74.21875 50.515625 64.515625 
Q 56.984375 54.828125 56.984375 36.375 
Q 56.984375 17.96875 50.515625 8.265625 
Q 44.046875 -1.421875 31.78125 -1.421875 
Q 19.53125 -1.421875 13.0625 8.265625 
Q 6.59375 17.96875 6.59375 36.375 
Q 6.59375 54.828125 13.0625 64.515625 
Q 19.53125 74.21875 31.78125 74.21875 
z
" id="DejaVuSans-30"/>
      </defs>
      <g transform="translate(101.83 407.9575)scale(0.16 -0.16)">
       <use xlink:href="#DejaVuSans-30"/>
      </g>
     </g>
    </g>
    <g id="xtick_2">
     <g id="line2d_2">
      <g>
       <use style="stroke:#000000;stroke-width:0.8;" x="204.889762" xlink:href="#m97d3bed339" y="388.8"/>
      </g>
     </g>
     <g id="text_2">
      <!-- 100 -->
      <defs>
       <path d="M 12.40625 8.296875 
L 28.515625 8.296875 
L 28.515625 63.921875 
L 10.984375 60.40625 
L 10.984375 69.390625 
L 28.421875 72.90625 
L 38.28125 72.90625 
L 38.28125 8.296875 
L 54.390625 8.296875 
L 54.390625 0 
L 12.40625 0 
z
" id="DejaVuSans-31"/>
      </defs>
      <g transform="translate(189.619762 407.9575)scale(0.16 -0.16)">
       <use xlink:href="#DejaVuSans-31"/>
       <use x="63.623047" xlink:href="#DejaVuSans-30"/>
       <use x="127.246094" xlink:href="#DejaVuSans-30"/>
      </g>
     </g>
    </g>
    <g id="xtick_3">
     <g id="line2d_3">
      <g>
       <use style="stroke:#000000;stroke-width:0.8;" x="302.859525" xlink:href="#m97d3bed339" y="388.8"/>
      </g>
     </g>
     <g id="text_3">
      <!-- 200 -->
      <defs>
       <path d="M 19.1875 8.296875 
L 53.609375 8.296875 
L 53.609375 0 
L 7.328125 0 
L 7.328125 8.296875 
Q 12.9375 14.109375 22.625 23.890625 
Q 32.328125 33.6875 34.8125 36.53125 
Q 39.546875 41.84375 41.421875 45.53125 
Q 43.3125 49.21875 43.3125 52.78125 
Q 43.3125 58.59375 39.234375 62.25 
Q 35.15625 65.921875 28.609375 65.921875 
Q 23.96875 65.921875 18.8125 64.3125 
Q 13.671875 62.703125 7.8125 59.421875 
L 7.8125 69.390625 
Q 13.765625 71.78125 18.9375 73 
Q 24.125 74.21875 28.421875 74.21875 
Q 39.75 74.21875 46.484375 68.546875 
Q 53.21875 62.890625 53.21875 53.421875 
Q 53.21875 48.921875 51.53125 44.890625 
Q 49.859375 40.875 45.40625 35.40625 
Q 44.1875 33.984375 37.640625 27.21875 
Q 31.109375 20.453125 19.1875 8.296875 
z
" id="DejaVuSans-32"/>
      </defs>
      <g transform="translate(287.589525 407.9575)scale(0.16 -0.16)">
       <use xlink:href="#DejaVuSans-32"/>
       <use x="63.623047" xlink:href="#DejaVuSans-30"/>
       <use x="127.246094" xlink:href="#DejaVuSans-30"/>
      </g>
     </g>
    </g>
    <g id="xtick_4">
     <g id="line2d_4">
      <g>
       <use style="stroke:#000000;stroke-width:0.8;" x="400.829287" xlink:href="#m97d3bed339" y="388.8"/>
      </g>
     </g>
     <g id="text_4">
      <!-- 300 -->
      <defs>
       <path d="M 40.578125 39.3125 
Q 47.65625 37.796875 51.625 33 
Q 55.609375 28.21875 55.609375 21.1875 
Q 55.609375 10.40625 48.1875 4.484375 
Q 40.765625 -1.421875 27.09375 -1.421875 
Q 22.515625 -1.421875 17.65625 -0.515625 
Q 12.796875 0.390625 7.625 2.203125 
L 7.625 11.71875 
Q 11.71875 9.328125 16.59375 8.109375 
Q 21.484375 6.890625 26.8125 6.890625 
Q 36.078125 6.890625 40.9375 10.546875 
Q 45.796875 14.203125 45.796875 21.1875 
Q 45.796875 27.640625 41.28125 31.265625 
Q 36.765625 34.90625 28.71875 34.90625 
L 20.21875 34.90625 
L 20.21875 43.015625 
L 29.109375 43.015625 
Q 36.375 43.015625 40.234375 45.921875 
Q 44.09375 48.828125 44.09375 54.296875 
Q 44.09375 59.90625 40.109375 62.90625 
Q 36.140625 65.921875 28.71875 65.921875 
Q 24.65625 65.921875 20.015625 65.03125 
Q 15.375 64.15625 9.8125 62.3125 
L 9.8125 71.09375 
Q 15.4375 72.65625 20.34375 73.4375 
Q 25.25 74.21875 29.59375 74.21875 
Q 40.828125 74.21875 47.359375 69.109375 
Q 53.90625 64.015625 53.90625 55.328125 
Q 53.90625 49.265625 50.4375 45.09375 
Q 46.96875 40.921875 40.578125 39.3125 
z
" id="DejaVuSans-33"/>
      </defs>
      <g transform="translate(385.559287 407.9575)scale(0.16 -0.16)">
       <use xlink:href="#DejaVuSans-33"/>
       <use x="63.623047" xlink:href="#DejaVuSans-30"/>
       <use x="127.246094" xlink:href="#DejaVuSans-30"/>
      </g>
     </g>
    </g>
    <g id="xtick_5">
     <g id="line2d_5">
      <g>
       <use style="stroke:#000000;stroke-width:0.8;" x="498.79905" xlink:href="#m97d3bed339" y="388.8"/>
      </g>
     </g>
     <g id="text_5">
      <!-- 400 -->
      <defs>
       <path d="M 37.796875 64.3125 
L 12.890625 25.390625 
L 37.796875 25.390625 
z
M 35.203125 72.90625 
L 47.609375 72.90625 
L 47.609375 25.390625 
L 58.015625 25.390625 
L 58.015625 17.1875 
L 47.609375 17.1875 
L 47.609375 0 
L 37.796875 0 
L 37.796875 17.1875 
L 4.890625 17.1875 
L 4.890625 26.703125 
z
" id="DejaVuSans-34"/>
      </defs>
      <g transform="translate(483.52905 407.9575)scale(0.16 -0.16)">
       <use xlink:href="#DejaVuSans-34"/>
       <use x="63.623047" xlink:href="#DejaVuSans-30"/>
       <use x="127.246094" xlink:href="#DejaVuSans-30"/>
      </g>
     </g>
    </g>
    <g id="text_6">
     <!-- Step -->
     <defs>
      <path d="M 53.515625 70.515625 
L 53.515625 60.890625 
Q 47.90625 63.578125 42.921875 64.890625 
Q 37.9375 66.21875 33.296875 66.21875 
Q 25.25 66.21875 20.875 63.09375 
Q 16.5 59.96875 16.5 54.203125 
Q 16.5 49.359375 19.40625 46.890625 
Q 22.3125 44.4375 30.421875 42.921875 
L 36.375 41.703125 
Q 47.40625 39.59375 52.65625 34.296875 
Q 57.90625 29 57.90625 20.125 
Q 57.90625 9.515625 50.796875 4.046875 
Q 43.703125 -1.421875 29.984375 -1.421875 
Q 24.8125 -1.421875 18.96875 -0.25 
Q 13.140625 0.921875 6.890625 3.21875 
L 6.890625 13.375 
Q 12.890625 10.015625 18.65625 8.296875 
Q 24.421875 6.59375 29.984375 6.59375 
Q 38.421875 6.59375 43.015625 9.90625 
Q 47.609375 13.234375 47.609375 19.390625 
Q 47.609375 24.75 44.3125 27.78125 
Q 41.015625 30.8125 33.5 32.328125 
L 27.484375 33.5 
Q 16.453125 35.6875 11.515625 40.375 
Q 6.59375 45.0625 6.59375 53.421875 
Q 6.59375 63.09375 13.40625 68.65625 
Q 20.21875 74.21875 32.171875 74.21875 
Q 37.3125 74.21875 42.625 73.28125 
Q 47.953125 72.359375 53.515625 70.515625 
z
" id="DejaVuSans-53"/>
      <path d="M 18.3125 70.21875 
L 18.3125 54.6875 
L 36.8125 54.6875 
L 36.8125 47.703125 
L 18.3125 47.703125 
L 18.3125 18.015625 
Q 18.3125 11.328125 20.140625 9.421875 
Q 21.96875 7.515625 27.59375 7.515625 
L 36.8125 7.515625 
L 36.8125 0 
L 27.59375 0 
Q 17.1875 0 13.234375 3.875 
Q 9.28125 7.765625 9.28125 18.015625 
L 9.28125 47.703125 
L 2.6875 47.703125 
L 2.6875 54.6875 
L 9.28125 54.6875 
L 9.28125 70.21875 
z
" id="DejaVuSans-74"/>
      <path d="M 56.203125 29.59375 
L 56.203125 25.203125 
L 14.890625 25.203125 
Q 15.484375 15.921875 20.484375 11.0625 
Q 25.484375 6.203125 34.421875 6.203125 
Q 39.59375 6.203125 44.453125 7.46875 
Q 49.3125 8.734375 54.109375 11.28125 
L 54.109375 2.78125 
Q 49.265625 0.734375 44.1875 -0.34375 
Q 39.109375 -1.421875 33.890625 -1.421875 
Q 20.796875 -1.421875 13.15625 6.1875 
Q 5.515625 13.8125 5.515625 26.8125 
Q 5.515625 40.234375 12.765625 48.109375 
Q 20.015625 56 32.328125 56 
Q 43.359375 56 49.78125 48.890625 
Q 56.203125 41.796875 56.203125 29.59375 
z
M 47.21875 32.234375 
Q 47.125 39.59375 43.09375 43.984375 
Q 39.0625 48.390625 32.421875 48.390625 
Q 24.90625 48.390625 20.390625 44.140625 
Q 15.875 39.890625 15.1875 32.171875 
z
" id="DejaVuSans-65"/>
      <path d="M 18.109375 8.203125 
L 18.109375 -20.796875 
L 9.078125 -20.796875 
L 9.078125 54.6875 
L 18.109375 54.6875 
L 18.109375 46.390625 
Q 20.953125 51.265625 25.265625 53.625 
Q 29.59375 56 35.59375 56 
Q 45.5625 56 51.78125 48.09375 
Q 58.015625 40.1875 58.015625 27.296875 
Q 58.015625 14.40625 51.78125 6.484375 
Q 45.5625 -1.421875 35.59375 -1.421875 
Q 29.59375 -1.421875 25.265625 0.953125 
Q 20.953125 3.328125 18.109375 8.203125 
z
M 48.6875 27.296875 
Q 48.6875 37.203125 44.609375 42.84375 
Q 40.53125 48.484375 33.40625 48.484375 
Q 26.265625 48.484375 22.1875 42.84375 
Q 18.109375 37.203125 18.109375 27.296875 
Q 18.109375 17.390625 22.1875 11.75 
Q 26.265625 6.109375 33.40625 6.109375 
Q 40.53125 6.109375 44.609375 11.75 
Q 48.6875 17.390625 48.6875 27.296875 
z
" id="DejaVuSans-70"/>
     </defs>
     <g transform="translate(315.50375 427.4425)scale(0.16 -0.16)">
      <use xlink:href="#DejaVuSans-53"/>
      <use x="63.476562" xlink:href="#DejaVuSans-74"/>
      <use x="102.685547" xlink:href="#DejaVuSans-65"/>
      <use x="164.208984" xlink:href="#DejaVuSans-70"/>
     </g>
    </g>
   </g>
   <g id="matplotlib.axis_2">
    <g id="ytick_1">
     <g id="line2d_6">
      <defs>
       <path d="M 0 0 
L -3.5 0 
" id="m461cff0de5" style="stroke:#000000;stroke-width:0.8;"/>
      </defs>
      <g>
       <use style="stroke:#000000;stroke-width:0.8;" x="84.24" xlink:href="#m461cff0de5" y="371.517189"/>
      </g>
     </g>
     <g id="text_7">
      <!-- 0 -->
      <g transform="translate(67.06 377.595939)scale(0.16 -0.16)">
       <use xlink:href="#DejaVuSans-30"/>
      </g>
     </g>
    </g>
    <g id="ytick_2">
     <g id="line2d_7">
      <g>
       <use style="stroke:#000000;stroke-width:0.8;" x="84.24" xlink:href="#m461cff0de5" y="315.497934"/>
      </g>
     </g>
     <g id="text_8">
      <!-- 5000 -->
      <defs>
       <path d="M 10.796875 72.90625 
L 49.515625 72.90625 
L 49.515625 64.59375 
L 19.828125 64.59375 
L 19.828125 46.734375 
Q 21.96875 47.46875 24.109375 47.828125 
Q 26.265625 48.1875 28.421875 48.1875 
Q 40.625 48.1875 47.75 41.5 
Q 54.890625 34.8125 54.890625 23.390625 
Q 54.890625 11.625 47.5625 5.09375 
Q 40.234375 -1.421875 26.90625 -1.421875 
Q 22.3125 -1.421875 17.546875 -0.640625 
Q 12.796875 0.140625 7.71875 1.703125 
L 7.71875 11.625 
Q 12.109375 9.234375 16.796875 8.0625 
Q 21.484375 6.890625 26.703125 6.890625 
Q 35.15625 6.890625 40.078125 11.328125 
Q 45.015625 15.765625 45.015625 23.390625 
Q 45.015625 31 40.078125 35.4375 
Q 35.15625 39.890625 26.703125 39.890625 
Q 22.75 39.890625 18.8125 39.015625 
Q 14.890625 38.140625 10.796875 36.28125 
z
" id="DejaVuSans-35"/>
      </defs>
      <g transform="translate(36.52 321.576684)scale(0.16 -0.16)">
       <use xlink:href="#DejaVuSans-35"/>
       <use x="63.623047" xlink:href="#DejaVuSans-30"/>
       <use x="127.246094" xlink:href="#DejaVuSans-30"/>
       <use x="190.869141" xlink:href="#DejaVuSans-30"/>
      </g>
     </g>
    </g>
    <g id="ytick_3">
     <g id="line2d_8">
      <g>
       <use style="stroke:#000000;stroke-width:0.8;" x="84.24" xlink:href="#m461cff0de5" y="259.478678"/>
      </g>
     </g>
     <g id="text_9">
      <!-- 10000 -->
      <g transform="translate(26.34 265.557428)scale(0.16 -0.16)">
       <use xlink:href="#DejaVuSans-31"/>
       <use x="63.623047" xlink:href="#DejaVuSans-30"/>
       <use x="127.246094" xlink:href="#DejaVuSans-30"/>
       <use x="190.869141" xlink:href="#DejaVuSans-30"/>
       <use x="254.492188" xlink:href="#DejaVuSans-30"/>
      </g>
     </g>
    </g>
    <g id="ytick_4">
     <g id="line2d_9">
      <g>
       <use style="stroke:#000000;stroke-width:0.8;" x="84.24" xlink:href="#m461cff0de5" y="203.459422"/>
      </g>
     </g>
     <g id="text_10">
      <!-- 15000 -->
      <g transform="translate(26.34 209.538172)scale(0.16 -0.16)">
       <use xlink:href="#DejaVuSans-31"/>
       <use x="63.623047" xlink:href="#DejaVuSans-35"/>
       <use x="127.246094" xlink:href="#DejaVuSans-30"/>
       <use x="190.869141" xlink:href="#DejaVuSans-30"/>
       <use x="254.492188" xlink:href="#DejaVuSans-30"/>
      </g>
     </g>
    </g>
    <g id="ytick_5">
     <g id="line2d_10">
      <g>
       <use style="stroke:#000000;stroke-width:0.8;" x="84.24" xlink:href="#m461cff0de5" y="147.440167"/>
      </g>
     </g>
     <g id="text_11">
      <!-- 20000 -->
      <g transform="translate(26.34 153.518917)scale(0.16 -0.16)">
       <use xlink:href="#DejaVuSans-32"/>
       <use x="63.623047" xlink:href="#DejaVuSans-30"/>
       <use x="127.246094" xlink:href="#DejaVuSans-30"/>
       <use x="190.869141" xlink:href="#DejaVuSans-30"/>
       <use x="254.492188" xlink:href="#DejaVuSans-30"/>
      </g>
     </g>
    </g>
    <g id="ytick_6">
     <g id="line2d_11">
      <g>
       <use style="stroke:#000000;stroke-width:0.8;" x="84.24" xlink:href="#m461cff0de5" y="91.420911"/>
      </g>
     </g>
     <g id="text_12">
      <!-- 25000 -->
      <g transform="translate(26.34 97.499661)scale(0.16 -0.16)">
       <use xlink:href="#DejaVuSans-32"/>
       <use x="63.623047" xlink:href="#DejaVuSans-35"/>
       <use x="127.246094" xlink:href="#DejaVuSans-30"/>
       <use x="190.869141" xlink:href="#DejaVuSans-30"/>
       <use x="254.492188" xlink:href="#DejaVuSans-30"/>
      </g>
     </g>
    </g>
    <g id="ytick_7">
     <g id="line2d_12">
      <g>
       <use style="stroke:#000000;stroke-width:0.8;" x="84.24" xlink:href="#m461cff0de5" y="35.401655"/>
      </g>
     </g>
     <g id="text_13">
      <!-- 30000 -->
      <g transform="translate(26.34 41.480405)scale(0.16 -0.16)">
       <use xlink:href="#DejaVuSans-33"/>
       <use x="63.623047" xlink:href="#DejaVuSans-30"/>
       <use x="127.246094" xlink:href="#DejaVuSans-30"/>
       <use x="190.869141" xlink:href="#DejaVuSans-30"/>
       <use x="254.492188" xlink:href="#DejaVuSans-30"/>
      </g>
     </g>
    </g>
    <g id="text_14">
     <!-- Cumulative Reward -->
     <defs>
      <path d="M 64.40625 67.28125 
L 64.40625 56.890625 
Q 59.421875 61.53125 53.78125 63.8125 
Q 48.140625 66.109375 41.796875 66.109375 
Q 29.296875 66.109375 22.65625 58.46875 
Q 16.015625 50.828125 16.015625 36.375 
Q 16.015625 21.96875 22.65625 14.328125 
Q 29.296875 6.6875 41.796875 6.6875 
Q 48.140625 6.6875 53.78125 8.984375 
Q 59.421875 11.28125 64.40625 15.921875 
L 64.40625 5.609375 
Q 59.234375 2.09375 53.4375 0.328125 
Q 47.65625 -1.421875 41.21875 -1.421875 
Q 24.65625 -1.421875 15.125 8.703125 
Q 5.609375 18.84375 5.609375 36.375 
Q 5.609375 53.953125 15.125 64.078125 
Q 24.65625 74.21875 41.21875 74.21875 
Q 47.75 74.21875 53.53125 72.484375 
Q 59.328125 70.75 64.40625 67.28125 
z
" id="DejaVuSans-43"/>
      <path d="M 8.5 21.578125 
L 8.5 54.6875 
L 17.484375 54.6875 
L 17.484375 21.921875 
Q 17.484375 14.15625 20.5 10.265625 
Q 23.53125 6.390625 29.59375 6.390625 
Q 36.859375 6.390625 41.078125 11.03125 
Q 45.3125 15.671875 45.3125 23.6875 
L 45.3125 54.6875 
L 54.296875 54.6875 
L 54.296875 0 
L 45.3125 0 
L 45.3125 8.40625 
Q 42.046875 3.421875 37.71875 1 
Q 33.40625 -1.421875 27.6875 -1.421875 
Q 18.265625 -1.421875 13.375 4.4375 
Q 8.5 10.296875 8.5 21.578125 
z
M 31.109375 56 
z
" id="DejaVuSans-75"/>
      <path d="M 52 44.1875 
Q 55.375 50.25 60.0625 53.125 
Q 64.75 56 71.09375 56 
Q 79.640625 56 84.28125 50.015625 
Q 88.921875 44.046875 88.921875 33.015625 
L 88.921875 0 
L 79.890625 0 
L 79.890625 32.71875 
Q 79.890625 40.578125 77.09375 44.375 
Q 74.3125 48.1875 68.609375 48.1875 
Q 61.625 48.1875 57.5625 43.546875 
Q 53.515625 38.921875 53.515625 30.90625 
L 53.515625 0 
L 44.484375 0 
L 44.484375 32.71875 
Q 44.484375 40.625 41.703125 44.40625 
Q 38.921875 48.1875 33.109375 48.1875 
Q 26.21875 48.1875 22.15625 43.53125 
Q 18.109375 38.875 18.109375 30.90625 
L 18.109375 0 
L 9.078125 0 
L 9.078125 54.6875 
L 18.109375 54.6875 
L 18.109375 46.1875 
Q 21.1875 51.21875 25.484375 53.609375 
Q 29.78125 56 35.6875 56 
Q 41.65625 56 45.828125 52.96875 
Q 50 49.953125 52 44.1875 
z
" id="DejaVuSans-6d"/>
      <path d="M 9.421875 75.984375 
L 18.40625 75.984375 
L 18.40625 0 
L 9.421875 0 
z
" id="DejaVuSans-6c"/>
      <path d="M 34.28125 27.484375 
Q 23.390625 27.484375 19.1875 25 
Q 14.984375 22.515625 14.984375 16.5 
Q 14.984375 11.71875 18.140625 8.90625 
Q 21.296875 6.109375 26.703125 6.109375 
Q 34.1875 6.109375 38.703125 11.40625 
Q 43.21875 16.703125 43.21875 25.484375 
L 43.21875 27.484375 
z
M 52.203125 31.203125 
L 52.203125 0 
L 43.21875 0 
L 43.21875 8.296875 
Q 40.140625 3.328125 35.546875 0.953125 
Q 30.953125 -1.421875 24.3125 -1.421875 
Q 15.921875 -1.421875 10.953125 3.296875 
Q 6 8.015625 6 15.921875 
Q 6 25.140625 12.171875 29.828125 
Q 18.359375 34.515625 30.609375 34.515625 
L 43.21875 34.515625 
L 43.21875 35.40625 
Q 43.21875 41.609375 39.140625 45 
Q 35.0625 48.390625 27.6875 48.390625 
Q 23 48.390625 18.546875 47.265625 
Q 14.109375 46.140625 10.015625 43.890625 
L 10.015625 52.203125 
Q 14.9375 54.109375 19.578125 55.046875 
Q 24.21875 56 28.609375 56 
Q 40.484375 56 46.34375 49.84375 
Q 52.203125 43.703125 52.203125 31.203125 
z
" id="DejaVuSans-61"/>
      <path d="M 9.421875 54.6875 
L 18.40625 54.6875 
L 18.40625 0 
L 9.421875 0 
z
M 9.421875 75.984375 
L 18.40625 75.984375 
L 18.40625 64.59375 
L 9.421875 64.59375 
z
" id="DejaVuSans-69"/>
      <path d="M 2.984375 54.6875 
L 12.5 54.6875 
L 29.59375 8.796875 
L 46.6875 54.6875 
L 56.203125 54.6875 
L 35.6875 0 
L 23.484375 0 
z
" id="DejaVuSans-76"/>
      <path id="DejaVuSans-20"/>
      <path d="M 44.390625 34.1875 
Q 47.5625 33.109375 50.5625 29.59375 
Q 53.5625 26.078125 56.59375 19.921875 
L 66.609375 0 
L 56 0 
L 46.6875 18.703125 
Q 43.0625 26.03125 39.671875 28.421875 
Q 36.28125 30.8125 30.421875 30.8125 
L 19.671875 30.8125 
L 19.671875 0 
L 9.8125 0 
L 9.8125 72.90625 
L 32.078125 72.90625 
Q 44.578125 72.90625 50.734375 67.671875 
Q 56.890625 62.453125 56.890625 51.90625 
Q 56.890625 45.015625 53.6875 40.46875 
Q 50.484375 35.9375 44.390625 34.1875 
z
M 19.671875 64.796875 
L 19.671875 38.921875 
L 32.078125 38.921875 
Q 39.203125 38.921875 42.84375 42.21875 
Q 46.484375 45.515625 46.484375 51.90625 
Q 46.484375 58.296875 42.84375 61.546875 
Q 39.203125 64.796875 32.078125 64.796875 
z
" id="DejaVuSans-52"/>
      <path d="M 4.203125 54.6875 
L 13.1875 54.6875 
L 24.421875 12.015625 
L 35.59375 54.6875 
L 46.1875 54.6875 
L 57.421875 12.015625 
L 68.609375 54.6875 
L 77.59375 54.6875 
L 63.28125 0 
L 52.6875 0 
L 40.921875 44.828125 
L 29.109375 0 
L 18.5 0 
z
" id="DejaVuSans-77"/>
      <path d="M 41.109375 46.296875 
Q 39.59375 47.171875 37.8125 47.578125 
Q 36.03125 48 33.890625 48 
Q 26.265625 48 22.1875 43.046875 
Q 18.109375 38.09375 18.109375 28.8125 
L 18.109375 0 
L 9.078125 0 
L 9.078125 54.6875 
L 18.109375 54.6875 
L 18.109375 46.1875 
Q 20.953125 51.171875 25.484375 53.578125 
Q 30.03125 56 36.53125 56 
Q 37.453125 56 38.578125 55.875 
Q 39.703125 55.765625 41.0625 55.515625 
z
" id="DejaVuSans-72"/>
      <path d="M 45.40625 46.390625 
L 45.40625 75.984375 
L 54.390625 75.984375 
L 54.390625 0 
L 45.40625 0 
L 45.40625 8.203125 
Q 42.578125 3.328125 38.25 0.953125 
Q 33.9375 -1.421875 27.875 -1.421875 
Q 17.96875 -1.421875 11.734375 6.484375 
Q 5.515625 14.40625 5.515625 27.296875 
Q 5.515625 40.1875 11.734375 48.09375 
Q 17.96875 56 27.875 56 
Q 33.9375 56 38.25 53.625 
Q 42.578125 51.265625 45.40625 46.390625 
z
M 14.796875 27.296875 
Q 14.796875 17.390625 18.875 11.75 
Q 22.953125 6.109375 30.078125 6.109375 
Q 37.203125 6.109375 41.296875 11.75 
Q 45.40625 17.390625 45.40625 27.296875 
Q 45.40625 37.203125 41.296875 42.84375 
Q 37.203125 48.484375 30.078125 48.484375 
Q 22.953125 48.484375 18.875 42.84375 
Q 14.796875 37.203125 14.796875 27.296875 
z
" id="DejaVuSans-64"/>
     </defs>
     <g transform="translate(19.0125 277.21)rotate(-90)scale(0.16 -0.16)">
      <use xlink:href="#DejaVuSans-43"/>
      <use x="69.824219" xlink:href="#DejaVuSans-75"/>
      <use x="133.203125" xlink:href="#DejaVuSans-6d"/>
      <use x="230.615234" xlink:href="#DejaVuSans-75"/>
      <use x="293.994141" xlink:href="#DejaVuSans-6c"/>
      <use x="321.777344" xlink:href="#DejaVuSans-61"/>
      <use x="383.056641" xlink:href="#DejaVuSans-74"/>
      <use x="422.265625" xlink:href="#DejaVuSans-69"/>
      <use x="450.048828" xlink:href="#DejaVuSans-76"/>
      <use x="509.228516" xlink:href="#DejaVuSans-65"/>
      <use x="570.751953" xlink:href="#DejaVuSans-20"/>
      <use x="602.539062" xlink:href="#DejaVuSans-52"/>
      <use x="671.958984" xlink:href="#DejaVuSans-65"/>
      <use x="733.482422" xlink:href="#DejaVuSans-77"/>
      <use x="815.269531" xlink:href="#DejaVuSans-61"/>
      <use x="876.548828" xlink:href="#DejaVuSans-72"/>
      <use x="917.646484" xlink:href="#DejaVuSans-64"/>
     </g>
    </g>
   </g>
   <g id="line2d_13">
    <path clip-path="url(#p34791b8fe0)" d="M 106.92 371.519853 
L 109.859093 371.403369 
L 112.798186 371.094222 
L 114.757581 370.757185 
L 117.696674 370.164547 
L 118.676371 369.620529 
L 120.635767 369.184329 
L 121.615464 368.675948 
L 123.57486 367.982469 
L 124.554557 367.247287 
L 125.534255 366.668633 
L 126.513952 365.834239 
L 127.49365 365.335343 
L 128.473348 364.704928 
L 132.392138 361.287453 
L 135.331231 358.509004 
L 138.270324 355.787972 
L 141.209417 352.873317 
L 144.14851 349.627299 
L 146.107905 347.127048 
L 147.087603 346.14844 
L 148.0673 345.357194 
L 150.026695 344.287564 
L 151.986091 343.508295 
L 154.925184 342.898797 
L 156.884579 341.810061 
L 160.803369 339.875079 
L 161.783067 339.300626 
L 162.762765 338.954745 
L 165.701857 337.372627 
L 167.661253 335.953724 
L 171.580043 332.567994 
L 172.559741 332.022866 
L 174.519136 329.829285 
L 175.498834 329.532197 
L 176.478531 328.832569 
L 177.458229 328.572715 
L 178.437927 327.826147 
L 179.417624 327.459872 
L 181.377019 326.102179 
L 183.336415 324.660685 
L 184.316112 324.161236 
L 185.29581 323.799613 
L 188.234903 323.280563 
L 191.173996 322.775215 
L 192.153693 322.486811 
L 194.113089 321.091604 
L 197.052181 318.639552 
L 201.95067 314.349982 
L 202.930367 313.704594 
L 204.889762 312.900803 
L 206.849158 312.334576 
L 209.788251 311.822063 
L 216.646134 310.966083 
L 219.585227 309.431283 
L 221.544622 308.264209 
L 223.504017 307.410451 
L 225.463413 306.767097 
L 228.402505 306.168196 
L 229.382203 305.786976 
L 231.341598 305.450922 
L 234.280691 305.330004 
L 560.52 305.330004 
L 560.52 305.330004 
" style="fill:none;stroke:#0000ff;stroke-dasharray:7.4,3.2;stroke-dashoffset:0;stroke-width:2;"/>
   </g>
   <g id="line2d_14">
    <path clip-path="url(#p34791b8fe0)" d="M 106.92 371.519916 
L 109.859093 371.396294 
L 112.798186 371.051476 
L 114.757581 370.634007 
L 116.716976 369.943763 
L 118.676371 368.90562 
L 123.57486 365.849289 
L 128.473348 362.663005 
L 133.371836 359.11511 
L 136.310929 356.658079 
L 138.270324 354.707461 
L 140.229719 352.371141 
L 142.189114 349.494933 
L 144.14851 346.575857 
L 145.128207 345.401048 
L 146.107905 344.65712 
L 147.087603 344.172425 
L 149.046998 343.729503 
L 151.986091 343.176912 
L 156.884579 341.691659 
L 158.843974 340.885891 
L 160.803369 339.901201 
L 162.762765 338.650349 
L 164.72216 337.028294 
L 166.681555 334.906921 
L 168.64095 332.456647 
L 169.620648 331.658319 
L 170.600346 330.691598 
L 172.559741 328.178253 
L 174.519136 325.56728 
L 175.498834 324.683706 
L 176.478531 324.097665 
L 178.437927 323.441023 
L 181.377019 322.750713 
L 184.316112 322.165711 
L 185.29581 321.886376 
L 186.275508 321.442364 
L 190.194298 318.304606 
L 193.133391 315.978245 
L 195.092786 314.62539 
L 197.052181 313.575269 
L 199.011577 313.092692 
L 201.95067 312.530152 
L 207.828855 311.828561 
L 208.808553 311.338703 
L 210.767948 310.809717 
L 213.707041 308.943557 
L 215.666436 308.044475 
L 217.625832 307.368409 
L 219.585227 306.941044 
L 221.544622 306.607228 
L 222.52432 306.047877 
L 224.483715 305.530371 
L 228.402505 304.594978 
L 230.361901 304.153805 
L 235.260389 303.586304 
L 236.240086 303.333257 
L 241.138575 301.325915 
L 245.057365 300.11154 
L 248.976156 296.586929 
L 249.955853 295.646373 
L 250.935551 294.945406 
L 251.915248 293.836331 
L 252.894946 292.97843 
L 256.813737 287.771384 
L 260.732527 282.363879 
L 261.712225 281.489802 
L 262.691922 280.938703 
L 264.651317 280.296574 
L 271.509201 279.224779 
L 276.407689 279.201369 
L 560.52 279.201369 
L 560.52 279.201369 
" style="fill:none;stroke:#008000;stroke-dasharray:2,3.3;stroke-dashoffset:0;stroke-width:2;"/>
   </g>
   <g id="line2d_15">
    <path clip-path="url(#p34791b8fe0)" d="M 106.92 371.519798 
L 109.859093 371.397766 
L 112.798186 371.056061 
L 114.757581 370.657522 
L 116.716976 370.046048 
L 119.656069 368.743009 
L 121.615464 367.537404 
L 124.554557 365.244065 
L 127.49365 362.701656 
L 130.432743 359.878895 
L 135.331231 354.532098 
L 139.250022 349.689974 
L 144.14851 343.445716 
L 145.128207 342.529893 
L 146.107905 341.909873 
L 147.087603 341.44873 
L 149.046998 340.949225 
L 151.986091 340.556441 
L 152.965788 340.285265 
L 154.925184 339.169626 
L 156.884579 337.762611 
L 159.823672 335.265753 
L 161.783067 333.339453 
L 164.72216 330.054455 
L 168.64095 325.729071 
L 175.498834 318.668745 
L 176.478531 317.53835 
L 177.458229 316.618434 
L 179.417624 315.288404 
L 180.397322 314.784493 
L 181.377019 314.432787 
L 183.336415 314.049774 
L 186.275508 313.543627 
L 188.234903 313.035602 
L 189.2146 312.853751 
L 191.173996 311.858125 
L 198.031879 307.852783 
L 199.991274 307.0605 
L 202.930367 306.490153 
L 207.828855 305.790846 
L 210.767948 305.400703 
L 213.707041 304.120131 
L 214.686739 303.860499 
L 216.646134 302.894173 
L 219.585227 301.973183 
L 223.504017 301.320884 
L 224.483715 300.866853 
L 227.422808 300.171008 
L 229.382203 299.639002 
L 232.321296 298.651665 
L 234.280691 298.261981 
L 239.179179 297.642589 
L 241.138575 297.043909 
L 245.057365 295.70469 
L 247.01676 294.953071 
L 248.976156 294.378301 
L 249.955853 293.984176 
L 251.915248 292.408048 
L 254.854341 290.021773 
L 257.793434 287.627844 
L 260.732527 284.994487 
L 262.691922 282.924443 
L 264.651317 280.388492 
L 265.631015 278.939719 
L 266.610713 277.740131 
L 267.59041 276.813038 
L 268.570108 276.09867 
L 269.549806 275.617095 
L 271.509201 275.044877 
L 279.346782 273.58394 
L 281.306177 272.964842 
L 283.265572 272.130583 
L 285.224968 271.03451 
L 287.184363 269.659866 
L 288.16406 268.920585 
L 290.123456 267.057285 
L 292.082851 264.908303 
L 295.021944 261.261296 
L 298.940734 255.895805 
L 302.859525 250.476006 
L 305.798618 246.874592 
L 309.717408 241.918186 
L 313.636199 236.668974 
L 316.575292 232.25825 
L 323.433175 221.379159 
L 325.39257 218.708704 
L 331.270756 211.978083 
L 333.230151 209.070703 
L 334.209849 207.622924 
L 336.169244 204.07255 
L 338.128639 200.702168 
L 340.088035 197.084763 
L 341.067732 195.542994 
L 342.04743 194.212111 
L 344.006825 192.140467 
L 345.96622 190.510376 
L 346.945918 189.898506 
L 347.925616 189.417902 
L 349.885011 188.855402 
L 354.783499 188.094487 
L 356.742894 187.34618 
L 358.702289 186.42793 
L 360.661685 185.256345 
L 364.580475 182.509626 
L 368.499266 180.208903 
L 370.458661 179.131792 
L 375.357149 175.707251 
L 378.296242 173.712897 
L 380.255637 171.966043 
L 383.19473 169.015598 
L 385.154125 167.611953 
L 389.072916 165.210352 
L 392.991706 163.513085 
L 394.951102 163.094495 
L 399.84959 162.385741 
L 400.829287 162.110389 
L 401.808985 161.506341 
L 404.748078 159.001236 
L 406.707473 157.162892 
L 408.666868 155.220112 
L 413.565356 149.677402 
L 420.42324 141.232431 
L 424.34203 136.505171 
L 427.281123 133.295822 
L 428.260821 132.442031 
L 429.240518 131.739249 
L 431.199914 130.850399 
L 439.037495 128.10961 
L 440.99689 127.536131 
L 444.91568 126.809272 
L 449.814168 126.1362 
L 452.753261 125.834126 
L 454.712657 125.452781 
L 455.692354 125.007982 
L 457.651749 123.648625 
L 466.469028 116.977372 
L 467.448726 116.406652 
L 470.387819 114.374009 
L 472.347214 113.156381 
L 474.306609 111.511402 
L 475.286307 110.551742 
L 476.266004 109.844706 
L 478.2254 107.620388 
L 482.14419 102.301656 
L 484.103585 99.76513 
L 486.062981 97.822173 
L 488.022376 95.929689 
L 489.002073 94.843562 
L 489.981771 93.558191 
L 490.961469 92.086086 
L 492.920864 89.83996 
L 493.900562 88.951356 
L 494.880259 88.307573 
L 496.839654 87.443306 
L 498.79905 87.045529 
L 510.555421 85.550136 
L 512.514816 84.604913 
L 514.474212 83.63795 
L 516.433607 83.177737 
L 519.3727 81.764213 
L 522.311793 80.515881 
L 528.189978 77.580263 
L 536.027559 73.472403 
L 537.986955 72.005848 
L 541.905745 67.069047 
L 545.824536 61.799419 
L 551.702721 53.937256 
L 552.682419 52.74473 
L 555.621512 48.74994 
L 557.580907 46.222 
L 558.560605 45.883829 
L 560.52 44.02646 
L 560.52 44.02646 
" style="fill:none;stroke:#800080;stroke-dasharray:12.8,3.2,2,3.2;stroke-dashoffset:0;stroke-width:2;"/>
   </g>
   <g id="line2d_16">
    <path clip-path="url(#p34791b8fe0)" d="M 106.92 371.52 
L 109.859093 371.394488 
L 112.798186 371.044353 
L 114.757581 370.642938 
L 117.696674 369.660574 
L 119.656069 368.650814 
L 121.615464 367.464699 
L 123.57486 365.879495 
L 126.513952 363.161942 
L 132.392138 357.144398 
L 135.331231 353.941308 
L 137.290626 351.595886 
L 140.229719 347.705623 
L 145.128207 340.730736 
L 146.107905 339.877109 
L 147.087603 339.281413 
L 149.046998 338.541919 
L 151.986091 338.029096 
L 157.864276 334.86448 
L 159.823672 333.629044 
L 162.762765 331.491756 
L 164.72216 329.820094 
L 167.661253 326.618782 
L 176.478531 316.786466 
L 178.437927 314.979961 
L 179.417624 314.354266 
L 180.397322 313.910845 
L 181.377019 313.591136 
L 184.316112 313.075309 
L 187.255205 312.508336 
L 188.234903 312.281103 
L 190.194298 310.950917 
L 194.113089 307.789759 
L 196.072484 306.171124 
L 198.031879 304.767962 
L 199.991274 303.810647 
L 201.95067 303.2499 
L 204.889762 302.743514 
L 211.747646 301.774357 
L 213.707041 300.840759 
L 218.605529 297.754965 
L 219.585227 297.366743 
L 221.544622 296.987678 
L 223.504017 296.667926 
L 224.483715 296.209275 
L 226.44311 295.75326 
L 229.382203 295.191358 
L 233.300994 294.156434 
L 236.240086 293.729489 
L 240.158877 292.666541 
L 245.057365 290.673067 
L 247.01676 289.71653 
L 247.996458 289.057644 
L 249.955853 287.35063 
L 252.894946 284.425666 
L 253.874644 283.521043 
L 254.854341 282.911612 
L 256.813737 280.828226 
L 257.793434 280.086202 
L 259.752829 277.728232 
L 262.691922 274.27321 
L 263.67162 273.246737 
L 265.631015 271.633559 
L 266.610713 271.086052 
L 267.59041 270.715924 
L 274.448294 268.971085 
L 278.367084 267.822037 
L 280.326479 266.947597 
L 282.285875 265.811966 
L 284.24527 264.34918 
L 286.204665 262.488974 
L 289.143758 259.189842 
L 291.103153 256.732359 
L 295.021944 251.198187 
L 300.90013 242.82277 
L 306.778315 233.708643 
L 311.676803 225.67186 
L 315.595594 219.360266 
L 317.554989 216.320784 
L 319.514384 213.5779 
L 321.47378 211.172921 
L 322.453477 210.058324 
L 324.412873 207.170053 
L 327.351965 202.01338 
L 332.250454 193.388572 
L 334.209849 190.16712 
L 335.189546 188.722193 
L 336.169244 187.55844 
L 337.148942 186.721679 
L 338.128639 186.074798 
L 340.088035 185.17677 
L 342.04743 184.769582 
L 344.986523 184.260185 
L 347.925616 183.327857 
L 349.885011 182.530357 
L 351.844406 181.519335 
L 353.803801 180.20948 
L 355.763197 178.516599 
L 360.661685 174.065038 
L 361.641382 173.415678 
L 363.600778 171.575189 
L 367.519568 168.102311 
L 369.478963 166.069965 
L 371.438359 163.715624 
L 372.418056 162.722826 
L 374.377451 161.285788 
L 382.215032 157.050687 
L 383.19473 156.737042 
L 385.154125 156.41513 
L 389.072916 155.923993 
L 390.052613 155.725024 
L 392.012009 154.187109 
L 396.910497 149.604092 
L 399.84959 146.434281 
L 404.748078 140.876896 
L 407.687171 137.475014 
L 410.626263 133.721864 
L 416.504449 125.348113 
L 417.484147 124.275847 
L 418.463844 123.416833 
L 419.443542 122.80184 
L 421.402937 121.90957 
L 425.321728 120.389751 
L 428.260821 119.409441 
L 430.220216 118.994508 
L 434.139006 118.355456 
L 435.118704 117.98388 
L 437.078099 117.596897 
L 442.956285 116.775643 
L 443.935983 116.324907 
L 445.895378 114.887953 
L 447.854773 113.303085 
L 449.814168 111.538327 
L 451.773564 109.465542 
L 453.732959 107.43931 
L 455.692354 105.697977 
L 458.631447 103.448361 
L 460.590842 102.017467 
L 461.57054 101.410753 
L 463.529935 99.907024 
L 464.509633 99.317746 
L 467.448726 96.396983 
L 470.387819 92.148528 
L 472.347214 89.37919 
L 473.326911 88.072142 
L 474.306609 87.097493 
L 477.245702 82.477517 
L 479.205097 79.941511 
L 480.184795 78.912452 
L 482.14419 77.431284 
L 483.123888 76.970964 
L 484.103585 76.676852 
L 489.002073 75.879002 
L 494.880259 75.050094 
L 496.839654 74.638906 
L 497.819352 74.280254 
L 499.778747 73.084592 
L 501.738143 71.623701 
L 503.697538 69.928949 
L 505.656933 68.1685 
L 507.616328 66.807384 
L 514.474212 62.282677 
L 518.393002 59.253309 
L 521.332095 56.788107 
L 522.311793 55.857485 
L 523.29149 54.650016 
L 525.250886 51.815947 
L 530.149374 44.944477 
L 533.088467 40.478595 
L 537.986955 33.197736 
L 541.905745 28.691554 
L 543.86514 26.763753 
L 544.844838 25.92 
L 560.52 25.92 
L 560.52 25.92 
" style="fill:none;stroke:#ff0000;stroke-linecap:square;stroke-width:2;"/>
   </g>
   <g id="patch_3">
    <path d="M 84.24 388.8 
L 84.24 8.64 
" style="fill:none;stroke:#000000;stroke-linecap:square;stroke-linejoin:miter;stroke-width:0.8;"/>
   </g>
   <g id="patch_4">
    <path d="M 583.2 388.8 
L 583.2 8.64 
" style="fill:none;stroke:#000000;stroke-linecap:square;stroke-linejoin:miter;stroke-width:0.8;"/>
   </g>
   <g id="patch_5">
    <path d="M 84.24 388.8 
L 583.2 388.8 
" style="fill:none;stroke:#000000;stroke-linecap:square;stroke-linejoin:miter;stroke-width:0.8;"/>
   </g>
   <g id="patch_6">
    <path d="M 84.24 8.64 
L 583.2 8.64 
" style="fill:none;stroke:#000000;stroke-linecap:square;stroke-linejoin:miter;stroke-width:0.8;"/>
   </g>
   <g id="legend_1">
    <g id="patch_7">
     <path d="M 95.44 115.38 
L 292.2925 115.38 
Q 295.4925 115.38 295.4925 112.18 
L 295.4925 19.84 
Q 295.4925 16.64 292.2925 16.64 
L 95.44 16.64 
Q 92.24 16.64 92.24 19.84 
L 92.24 112.18 
Q 92.24 115.38 95.44 115.38 
z
" style="fill:#ffffff;opacity:0.8;stroke:#cccccc;stroke-linejoin:miter;"/>
    </g>
    <g id="line2d_17">
     <path d="M 98.64 29.5975 
L 130.64 29.5975 
" style="fill:none;stroke:#0000ff;stroke-dasharray:7.4,3.2;stroke-dashoffset:0;stroke-width:2;"/>
    </g>
    <g id="line2d_18"/>
    <g id="text_15">
     <!-- sub-policy0 -->
     <defs>
      <path d="M 44.28125 53.078125 
L 44.28125 44.578125 
Q 40.484375 46.53125 36.375 47.5 
Q 32.28125 48.484375 27.875 48.484375 
Q 21.1875 48.484375 17.84375 46.4375 
Q 14.5 44.390625 14.5 40.28125 
Q 14.5 37.15625 16.890625 35.375 
Q 19.28125 33.59375 26.515625 31.984375 
L 29.59375 31.296875 
Q 39.15625 29.25 43.1875 25.515625 
Q 47.21875 21.78125 47.21875 15.09375 
Q 47.21875 7.46875 41.1875 3.015625 
Q 35.15625 -1.421875 24.609375 -1.421875 
Q 20.21875 -1.421875 15.453125 -0.5625 
Q 10.6875 0.296875 5.421875 2 
L 5.421875 11.28125 
Q 10.40625 8.6875 15.234375 7.390625 
Q 20.0625 6.109375 24.8125 6.109375 
Q 31.15625 6.109375 34.5625 8.28125 
Q 37.984375 10.453125 37.984375 14.40625 
Q 37.984375 18.0625 35.515625 20.015625 
Q 33.0625 21.96875 24.703125 23.78125 
L 21.578125 24.515625 
Q 13.234375 26.265625 9.515625 29.90625 
Q 5.8125 33.546875 5.8125 39.890625 
Q 5.8125 47.609375 11.28125 51.796875 
Q 16.75 56 26.8125 56 
Q 31.78125 56 36.171875 55.265625 
Q 40.578125 54.546875 44.28125 53.078125 
z
" id="DejaVuSans-73"/>
      <path d="M 48.6875 27.296875 
Q 48.6875 37.203125 44.609375 42.84375 
Q 40.53125 48.484375 33.40625 48.484375 
Q 26.265625 48.484375 22.1875 42.84375 
Q 18.109375 37.203125 18.109375 27.296875 
Q 18.109375 17.390625 22.1875 11.75 
Q 26.265625 6.109375 33.40625 6.109375 
Q 40.53125 6.109375 44.609375 11.75 
Q 48.6875 17.390625 48.6875 27.296875 
z
M 18.109375 46.390625 
Q 20.953125 51.265625 25.265625 53.625 
Q 29.59375 56 35.59375 56 
Q 45.5625 56 51.78125 48.09375 
Q 58.015625 40.1875 58.015625 27.296875 
Q 58.015625 14.40625 51.78125 6.484375 
Q 45.5625 -1.421875 35.59375 -1.421875 
Q 29.59375 -1.421875 25.265625 0.953125 
Q 20.953125 3.328125 18.109375 8.203125 
L 18.109375 0 
L 9.078125 0 
L 9.078125 75.984375 
L 18.109375 75.984375 
z
" id="DejaVuSans-62"/>
      <path d="M 4.890625 31.390625 
L 31.203125 31.390625 
L 31.203125 23.390625 
L 4.890625 23.390625 
z
" id="DejaVuSans-2d"/>
      <path d="M 30.609375 48.390625 
Q 23.390625 48.390625 19.1875 42.75 
Q 14.984375 37.109375 14.984375 27.296875 
Q 14.984375 17.484375 19.15625 11.84375 
Q 23.34375 6.203125 30.609375 6.203125 
Q 37.796875 6.203125 41.984375 11.859375 
Q 46.1875 17.53125 46.1875 27.296875 
Q 46.1875 37.015625 41.984375 42.703125 
Q 37.796875 48.390625 30.609375 48.390625 
z
M 30.609375 56 
Q 42.328125 56 49.015625 48.375 
Q 55.71875 40.765625 55.71875 27.296875 
Q 55.71875 13.875 49.015625 6.21875 
Q 42.328125 -1.421875 30.609375 -1.421875 
Q 18.84375 -1.421875 12.171875 6.21875 
Q 5.515625 13.875 5.515625 27.296875 
Q 5.515625 40.765625 12.171875 48.375 
Q 18.84375 56 30.609375 56 
z
" id="DejaVuSans-6f"/>
      <path d="M 48.78125 52.59375 
L 48.78125 44.1875 
Q 44.96875 46.296875 41.140625 47.34375 
Q 37.3125 48.390625 33.40625 48.390625 
Q 24.65625 48.390625 19.8125 42.84375 
Q 14.984375 37.3125 14.984375 27.296875 
Q 14.984375 17.28125 19.8125 11.734375 
Q 24.65625 6.203125 33.40625 6.203125 
Q 37.3125 6.203125 41.140625 7.25 
Q 44.96875 8.296875 48.78125 10.40625 
L 48.78125 2.09375 
Q 45.015625 0.34375 40.984375 -0.53125 
Q 36.96875 -1.421875 32.421875 -1.421875 
Q 20.0625 -1.421875 12.78125 6.34375 
Q 5.515625 14.109375 5.515625 27.296875 
Q 5.515625 40.671875 12.859375 48.328125 
Q 20.21875 56 33.015625 56 
Q 37.15625 56 41.109375 55.140625 
Q 45.0625 54.296875 48.78125 52.59375 
z
" id="DejaVuSans-63"/>
      <path d="M 32.171875 -5.078125 
Q 28.375 -14.84375 24.75 -17.8125 
Q 21.140625 -20.796875 15.09375 -20.796875 
L 7.90625 -20.796875 
L 7.90625 -13.28125 
L 13.1875 -13.28125 
Q 16.890625 -13.28125 18.9375 -11.515625 
Q 21 -9.765625 23.484375 -3.21875 
L 25.09375 0.875 
L 2.984375 54.6875 
L 12.5 54.6875 
L 29.59375 11.921875 
L 46.6875 54.6875 
L 56.203125 54.6875 
z
" id="DejaVuSans-79"/>
     </defs>
     <g transform="translate(143.44 35.1975)scale(0.16 -0.16)">
      <use xlink:href="#DejaVuSans-73"/>
      <use x="52.099609" xlink:href="#DejaVuSans-75"/>
      <use x="115.478516" xlink:href="#DejaVuSans-62"/>
      <use x="178.955078" xlink:href="#DejaVuSans-2d"/>
      <use x="215.039062" xlink:href="#DejaVuSans-70"/>
      <use x="278.515625" xlink:href="#DejaVuSans-6f"/>
      <use x="339.697266" xlink:href="#DejaVuSans-6c"/>
      <use x="367.480469" xlink:href="#DejaVuSans-69"/>
      <use x="395.263672" xlink:href="#DejaVuSans-63"/>
      <use x="450.244141" xlink:href="#DejaVuSans-79"/>
      <use x="509.423828" xlink:href="#DejaVuSans-30"/>
     </g>
    </g>
    <g id="line2d_19">
     <path d="M 98.64 53.0825 
L 130.64 53.0825 
" style="fill:none;stroke:#008000;stroke-dasharray:2,3.3;stroke-dashoffset:0;stroke-width:2;"/>
    </g>
    <g id="line2d_20"/>
    <g id="text_16">
     <!-- sub-policy1 -->
     <g transform="translate(143.44 58.6825)scale(0.16 -0.16)">
      <use xlink:href="#DejaVuSans-73"/>
      <use x="52.099609" xlink:href="#DejaVuSans-75"/>
      <use x="115.478516" xlink:href="#DejaVuSans-62"/>
      <use x="178.955078" xlink:href="#DejaVuSans-2d"/>
      <use x="215.039062" xlink:href="#DejaVuSans-70"/>
      <use x="278.515625" xlink:href="#DejaVuSans-6f"/>
      <use x="339.697266" xlink:href="#DejaVuSans-6c"/>
      <use x="367.480469" xlink:href="#DejaVuSans-69"/>
      <use x="395.263672" xlink:href="#DejaVuSans-63"/>
      <use x="450.244141" xlink:href="#DejaVuSans-79"/>
      <use x="509.423828" xlink:href="#DejaVuSans-31"/>
     </g>
    </g>
    <g id="line2d_21">
     <path d="M 98.64 76.5675 
L 130.64 76.5675 
" style="fill:none;stroke:#800080;stroke-dasharray:12.8,3.2,2,3.2;stroke-dashoffset:0;stroke-width:2;"/>
    </g>
    <g id="line2d_22"/>
    <g id="text_17">
     <!-- sub-policy2 -->
     <g transform="translate(143.44 82.1675)scale(0.16 -0.16)">
      <use xlink:href="#DejaVuSans-73"/>
      <use x="52.099609" xlink:href="#DejaVuSans-75"/>
      <use x="115.478516" xlink:href="#DejaVuSans-62"/>
      <use x="178.955078" xlink:href="#DejaVuSans-2d"/>
      <use x="215.039062" xlink:href="#DejaVuSans-70"/>
      <use x="278.515625" xlink:href="#DejaVuSans-6f"/>
      <use x="339.697266" xlink:href="#DejaVuSans-6c"/>
      <use x="367.480469" xlink:href="#DejaVuSans-69"/>
      <use x="395.263672" xlink:href="#DejaVuSans-63"/>
      <use x="450.244141" xlink:href="#DejaVuSans-79"/>
      <use x="509.423828" xlink:href="#DejaVuSans-32"/>
     </g>
    </g>
    <g id="line2d_23">
     <path d="M 98.64 100.0525 
L 130.64 100.0525 
" style="fill:none;stroke:#ff0000;stroke-linecap:square;stroke-width:2;"/>
    </g>
    <g id="line2d_24"/>
    <g id="text_18">
     <!-- aggregated-policy -->
     <defs>
      <path d="M 45.40625 27.984375 
Q 45.40625 37.75 41.375 43.109375 
Q 37.359375 48.484375 30.078125 48.484375 
Q 22.859375 48.484375 18.828125 43.109375 
Q 14.796875 37.75 14.796875 27.984375 
Q 14.796875 18.265625 18.828125 12.890625 
Q 22.859375 7.515625 30.078125 7.515625 
Q 37.359375 7.515625 41.375 12.890625 
Q 45.40625 18.265625 45.40625 27.984375 
z
M 54.390625 6.78125 
Q 54.390625 -7.171875 48.1875 -13.984375 
Q 42 -20.796875 29.203125 -20.796875 
Q 24.46875 -20.796875 20.265625 -20.09375 
Q 16.0625 -19.390625 12.109375 -17.921875 
L 12.109375 -9.1875 
Q 16.0625 -11.328125 19.921875 -12.34375 
Q 23.78125 -13.375 27.78125 -13.375 
Q 36.625 -13.375 41.015625 -8.765625 
Q 45.40625 -4.15625 45.40625 5.171875 
L 45.40625 9.625 
Q 42.625 4.78125 38.28125 2.390625 
Q 33.9375 0 27.875 0 
Q 17.828125 0 11.671875 7.65625 
Q 5.515625 15.328125 5.515625 27.984375 
Q 5.515625 40.671875 11.671875 48.328125 
Q 17.828125 56 27.875 56 
Q 33.9375 56 38.28125 53.609375 
Q 42.625 51.21875 45.40625 46.390625 
L 45.40625 54.6875 
L 54.390625 54.6875 
z
" id="DejaVuSans-67"/>
     </defs>
     <g transform="translate(143.44 105.6525)scale(0.16 -0.16)">
      <use xlink:href="#DejaVuSans-61"/>
      <use x="61.279297" xlink:href="#DejaVuSans-67"/>
      <use x="124.755859" xlink:href="#DejaVuSans-67"/>
      <use x="188.232422" xlink:href="#DejaVuSans-72"/>
      <use x="229.314453" xlink:href="#DejaVuSans-65"/>
      <use x="290.837891" xlink:href="#DejaVuSans-67"/>
      <use x="354.314453" xlink:href="#DejaVuSans-61"/>
      <use x="415.59375" xlink:href="#DejaVuSans-74"/>
      <use x="454.802734" xlink:href="#DejaVuSans-65"/>
      <use x="516.326172" xlink:href="#DejaVuSans-64"/>
      <use x="579.802734" xlink:href="#DejaVuSans-2d"/>
      <use x="615.886719" xlink:href="#DejaVuSans-70"/>
      <use x="679.363281" xlink:href="#DejaVuSans-6f"/>
      <use x="740.544922" xlink:href="#DejaVuSans-6c"/>
      <use x="768.328125" xlink:href="#DejaVuSans-69"/>
      <use x="796.111328" xlink:href="#DejaVuSans-63"/>
      <use x="851.091797" xlink:href="#DejaVuSans-79"/>
     </g>
    </g>
   </g>
  </g>
 </g>
 <defs>
  <clipPath id="p34791b8fe0">
   <rect height="380.16" width="498.96" x="84.24" y="8.64"/>
  </clipPath>
 </defs>
</svg>
