<?xml version="1.0" encoding="utf-8" standalone="no"?>
<!DOCTYPE svg PUBLIC "-//W3C//DTD SVG 1.1//EN"
  "http://www.w3.org/Graphics/SVG/1.1/DTD/svg11.dtd">
<!-- Created with matplotlib (http://matplotlib.org/) -->
<svg height="432pt" version="1.1" viewBox="0 0 648 432" width="648pt" xmlns="http://www.w3.org/2000/svg" xmlns:xlink="http://www.w3.org/1999/xlink">
 <defs>
  <style type="text/css">
*{stroke-linecap:butt;stroke-linejoin:round;}
  </style>
 </defs>
 <g id="figure_1">
  <g id="patch_1">
   <path d="M 0 432 
L 648 432 
L 648 0 
L 0 0 
z
" style="fill:#ffffff;"/>
  </g>
  <g id="axes_1">
   <g id="patch_2">
    <path d="M 84.24 388.8 
L 583.2 388.8 
L 583.2 8.64 
L 84.24 8.64 
z
" style="fill:#ffffff;"/>
   </g>
   <g id="matplotlib.axis_1">
    <g id="xtick_1">
     <g id="line2d_1">
      <defs>
       <path d="M 0 0 
L 0 3.5 
" id="mc8a7d1a06d" style="stroke:#000000;stroke-width:0.8;"/>
      </defs>
      <g>
       <use style="stroke:#000000;stroke-width:0.8;" x="106.92" xlink:href="#mc8a7d1a06d" y="388.8"/>
      </g>
     </g>
     <g id="text_1">
      <!-- 0 -->
      <defs>
       <path d="M 31.78125 66.40625 
Q 24.171875 66.40625 20.328125 58.90625 
Q 16.5 51.421875 16.5 36.375 
Q 16.5 21.390625 20.328125 13.890625 
Q 24.171875 6.390625 31.78125 6.390625 
Q 39.453125 6.390625 43.28125 13.890625 
Q 47.125 21.390625 47.125 36.375 
Q 47.125 51.421875 43.28125 58.90625 
Q 39.453125 66.40625 31.78125 66.40625 
z
M 31.78125 74.21875 
Q 44.046875 74.21875 50.515625 64.515625 
Q 56.984375 54.828125 56.984375 36.375 
Q 56.984375 17.96875 50.515625 8.265625 
Q 44.046875 -1.421875 31.78125 -1.421875 
Q 19.53125 -1.421875 13.0625 8.265625 
Q 6.59375 17.96875 6.59375 36.375 
Q 6.59375 54.828125 13.0625 64.515625 
Q 19.53125 74.21875 31.78125 74.21875 
z
" id="DejaVuSans-30"/>
      </defs>
      <g transform="translate(101.83 407.9575)scale(0.16 -0.16)">
       <use xlink:href="#DejaVuSans-30"/>
      </g>
     </g>
    </g>
    <g id="xtick_2">
     <g id="line2d_2">
      <g>
       <use style="stroke:#000000;stroke-width:0.8;" x="205.959301" xlink:href="#mc8a7d1a06d" y="388.8"/>
      </g>
     </g>
     <g id="text_2">
      <!-- 100 -->
      <defs>
       <path d="M 12.40625 8.296875 
L 28.515625 8.296875 
L 28.515625 63.921875 
L 10.984375 60.40625 
L 10.984375 69.390625 
L 28.421875 72.90625 
L 38.28125 72.90625 
L 38.28125 8.296875 
L 54.390625 8.296875 
L 54.390625 0 
L 12.40625 0 
z
" id="DejaVuSans-31"/>
      </defs>
      <g transform="translate(190.689301 407.9575)scale(0.16 -0.16)">
       <use xlink:href="#DejaVuSans-31"/>
       <use x="63.623047" xlink:href="#DejaVuSans-30"/>
       <use x="127.246094" xlink:href="#DejaVuSans-30"/>
      </g>
     </g>
    </g>
    <g id="xtick_3">
     <g id="line2d_3">
      <g>
       <use style="stroke:#000000;stroke-width:0.8;" x="304.998603" xlink:href="#mc8a7d1a06d" y="388.8"/>
      </g>
     </g>
     <g id="text_3">
      <!-- 200 -->
      <defs>
       <path d="M 19.1875 8.296875 
L 53.609375 8.296875 
L 53.609375 0 
L 7.328125 0 
L 7.328125 8.296875 
Q 12.9375 14.109375 22.625 23.890625 
Q 32.328125 33.6875 34.8125 36.53125 
Q 39.546875 41.84375 41.421875 45.53125 
Q 43.3125 49.21875 43.3125 52.78125 
Q 43.3125 58.59375 39.234375 62.25 
Q 35.15625 65.921875 28.609375 65.921875 
Q 23.96875 65.921875 18.8125 64.3125 
Q 13.671875 62.703125 7.8125 59.421875 
L 7.8125 69.390625 
Q 13.765625 71.78125 18.9375 73 
Q 24.125 74.21875 28.421875 74.21875 
Q 39.75 74.21875 46.484375 68.546875 
Q 53.21875 62.890625 53.21875 53.421875 
Q 53.21875 48.921875 51.53125 44.890625 
Q 49.859375 40.875 45.40625 35.40625 
Q 44.1875 33.984375 37.640625 27.21875 
Q 31.109375 20.453125 19.1875 8.296875 
z
" id="DejaVuSans-32"/>
      </defs>
      <g transform="translate(289.728603 407.9575)scale(0.16 -0.16)">
       <use xlink:href="#DejaVuSans-32"/>
       <use x="63.623047" xlink:href="#DejaVuSans-30"/>
       <use x="127.246094" xlink:href="#DejaVuSans-30"/>
      </g>
     </g>
    </g>
    <g id="xtick_4">
     <g id="line2d_4">
      <g>
       <use style="stroke:#000000;stroke-width:0.8;" x="404.037904" xlink:href="#mc8a7d1a06d" y="388.8"/>
      </g>
     </g>
     <g id="text_4">
      <!-- 300 -->
      <defs>
       <path d="M 40.578125 39.3125 
Q 47.65625 37.796875 51.625 33 
Q 55.609375 28.21875 55.609375 21.1875 
Q 55.609375 10.40625 48.1875 4.484375 
Q 40.765625 -1.421875 27.09375 -1.421875 
Q 22.515625 -1.421875 17.65625 -0.515625 
Q 12.796875 0.390625 7.625 2.203125 
L 7.625 11.71875 
Q 11.71875 9.328125 16.59375 8.109375 
Q 21.484375 6.890625 26.8125 6.890625 
Q 36.078125 6.890625 40.9375 10.546875 
Q 45.796875 14.203125 45.796875 21.1875 
Q 45.796875 27.640625 41.28125 31.265625 
Q 36.765625 34.90625 28.71875 34.90625 
L 20.21875 34.90625 
L 20.21875 43.015625 
L 29.109375 43.015625 
Q 36.375 43.015625 40.234375 45.921875 
Q 44.09375 48.828125 44.09375 54.296875 
Q 44.09375 59.90625 40.109375 62.90625 
Q 36.140625 65.921875 28.71875 65.921875 
Q 24.65625 65.921875 20.015625 65.03125 
Q 15.375 64.15625 9.8125 62.3125 
L 9.8125 71.09375 
Q 15.4375 72.65625 20.34375 73.4375 
Q 25.25 74.21875 29.59375 74.21875 
Q 40.828125 74.21875 47.359375 69.109375 
Q 53.90625 64.015625 53.90625 55.328125 
Q 53.90625 49.265625 50.4375 45.09375 
Q 46.96875 40.921875 40.578125 39.3125 
z
" id="DejaVuSans-33"/>
      </defs>
      <g transform="translate(388.767904 407.9575)scale(0.16 -0.16)">
       <use xlink:href="#DejaVuSans-33"/>
       <use x="63.623047" xlink:href="#DejaVuSans-30"/>
       <use x="127.246094" xlink:href="#DejaVuSans-30"/>
      </g>
     </g>
    </g>
    <g id="xtick_5">
     <g id="line2d_5">
      <g>
       <use style="stroke:#000000;stroke-width:0.8;" x="503.077205" xlink:href="#mc8a7d1a06d" y="388.8"/>
      </g>
     </g>
     <g id="text_5">
      <!-- 400 -->
      <defs>
       <path d="M 37.796875 64.3125 
L 12.890625 25.390625 
L 37.796875 25.390625 
z
M 35.203125 72.90625 
L 47.609375 72.90625 
L 47.609375 25.390625 
L 58.015625 25.390625 
L 58.015625 17.1875 
L 47.609375 17.1875 
L 47.609375 0 
L 37.796875 0 
L 37.796875 17.1875 
L 4.890625 17.1875 
L 4.890625 26.703125 
z
" id="DejaVuSans-34"/>
      </defs>
      <g transform="translate(487.807205 407.9575)scale(0.16 -0.16)">
       <use xlink:href="#DejaVuSans-34"/>
       <use x="63.623047" xlink:href="#DejaVuSans-30"/>
       <use x="127.246094" xlink:href="#DejaVuSans-30"/>
      </g>
     </g>
    </g>
    <g id="text_6">
     <!-- Step -->
     <defs>
      <path d="M 53.515625 70.515625 
L 53.515625 60.890625 
Q 47.90625 63.578125 42.921875 64.890625 
Q 37.9375 66.21875 33.296875 66.21875 
Q 25.25 66.21875 20.875 63.09375 
Q 16.5 59.96875 16.5 54.203125 
Q 16.5 49.359375 19.40625 46.890625 
Q 22.3125 44.4375 30.421875 42.921875 
L 36.375 41.703125 
Q 47.40625 39.59375 52.65625 34.296875 
Q 57.90625 29 57.90625 20.125 
Q 57.90625 9.515625 50.796875 4.046875 
Q 43.703125 -1.421875 29.984375 -1.421875 
Q 24.8125 -1.421875 18.96875 -0.25 
Q 13.140625 0.921875 6.890625 3.21875 
L 6.890625 13.375 
Q 12.890625 10.015625 18.65625 8.296875 
Q 24.421875 6.59375 29.984375 6.59375 
Q 38.421875 6.59375 43.015625 9.90625 
Q 47.609375 13.234375 47.609375 19.390625 
Q 47.609375 24.75 44.3125 27.78125 
Q 41.015625 30.8125 33.5 32.328125 
L 27.484375 33.5 
Q 16.453125 35.6875 11.515625 40.375 
Q 6.59375 45.0625 6.59375 53.421875 
Q 6.59375 63.09375 13.40625 68.65625 
Q 20.21875 74.21875 32.171875 74.21875 
Q 37.3125 74.21875 42.625 73.28125 
Q 47.953125 72.359375 53.515625 70.515625 
z
" id="DejaVuSans-53"/>
      <path d="M 18.3125 70.21875 
L 18.3125 54.6875 
L 36.8125 54.6875 
L 36.8125 47.703125 
L 18.3125 47.703125 
L 18.3125 18.015625 
Q 18.3125 11.328125 20.140625 9.421875 
Q 21.96875 7.515625 27.59375 7.515625 
L 36.8125 7.515625 
L 36.8125 0 
L 27.59375 0 
Q 17.1875 0 13.234375 3.875 
Q 9.28125 7.765625 9.28125 18.015625 
L 9.28125 47.703125 
L 2.6875 47.703125 
L 2.6875 54.6875 
L 9.28125 54.6875 
L 9.28125 70.21875 
z
" id="DejaVuSans-74"/>
      <path d="M 56.203125 29.59375 
L 56.203125 25.203125 
L 14.890625 25.203125 
Q 15.484375 15.921875 20.484375 11.0625 
Q 25.484375 6.203125 34.421875 6.203125 
Q 39.59375 6.203125 44.453125 7.46875 
Q 49.3125 8.734375 54.109375 11.28125 
L 54.109375 2.78125 
Q 49.265625 0.734375 44.1875 -0.34375 
Q 39.109375 -1.421875 33.890625 -1.421875 
Q 20.796875 -1.421875 13.15625 6.1875 
Q 5.515625 13.8125 5.515625 26.8125 
Q 5.515625 40.234375 12.765625 48.109375 
Q 20.015625 56 32.328125 56 
Q 43.359375 56 49.78125 48.890625 
Q 56.203125 41.796875 56.203125 29.59375 
z
M 47.21875 32.234375 
Q 47.125 39.59375 43.09375 43.984375 
Q 39.0625 48.390625 32.421875 48.390625 
Q 24.90625 48.390625 20.390625 44.140625 
Q 15.875 39.890625 15.1875 32.171875 
z
" id="DejaVuSans-65"/>
      <path d="M 18.109375 8.203125 
L 18.109375 -20.796875 
L 9.078125 -20.796875 
L 9.078125 54.6875 
L 18.109375 54.6875 
L 18.109375 46.390625 
Q 20.953125 51.265625 25.265625 53.625 
Q 29.59375 56 35.59375 56 
Q 45.5625 56 51.78125 48.09375 
Q 58.015625 40.1875 58.015625 27.296875 
Q 58.015625 14.40625 51.78125 6.484375 
Q 45.5625 -1.421875 35.59375 -1.421875 
Q 29.59375 -1.421875 25.265625 0.953125 
Q 20.953125 3.328125 18.109375 8.203125 
z
M 48.6875 27.296875 
Q 48.6875 37.203125 44.609375 42.84375 
Q 40.53125 48.484375 33.40625 48.484375 
Q 26.265625 48.484375 22.1875 42.84375 
Q 18.109375 37.203125 18.109375 27.296875 
Q 18.109375 17.390625 22.1875 11.75 
Q 26.265625 6.109375 33.40625 6.109375 
Q 40.53125 6.109375 44.609375 11.75 
Q 48.6875 17.390625 48.6875 27.296875 
z
" id="DejaVuSans-70"/>
     </defs>
     <g transform="translate(315.50375 427.4425)scale(0.16 -0.16)">
      <use xlink:href="#DejaVuSans-53"/>
      <use x="63.476562" xlink:href="#DejaVuSans-74"/>
      <use x="102.685547" xlink:href="#DejaVuSans-65"/>
      <use x="164.208984" xlink:href="#DejaVuSans-70"/>
     </g>
    </g>
   </g>
   <g id="matplotlib.axis_2">
    <g id="ytick_1">
     <g id="line2d_6">
      <defs>
       <path d="M 0 0 
L -3.5 0 
" id="mf54b53eef8" style="stroke:#000000;stroke-width:0.8;"/>
      </defs>
      <g>
       <use style="stroke:#000000;stroke-width:0.8;" x="84.24" xlink:href="#mf54b53eef8" y="371.517217"/>
      </g>
     </g>
     <g id="text_7">
      <!-- 0 -->
      <g transform="translate(67.06 377.595967)scale(0.16 -0.16)">
       <use xlink:href="#DejaVuSans-30"/>
      </g>
     </g>
    </g>
    <g id="ytick_2">
     <g id="line2d_7">
      <g>
       <use style="stroke:#000000;stroke-width:0.8;" x="84.24" xlink:href="#mf54b53eef8" y="318.942022"/>
      </g>
     </g>
     <g id="text_8">
      <!-- 5000 -->
      <defs>
       <path d="M 10.796875 72.90625 
L 49.515625 72.90625 
L 49.515625 64.59375 
L 19.828125 64.59375 
L 19.828125 46.734375 
Q 21.96875 47.46875 24.109375 47.828125 
Q 26.265625 48.1875 28.421875 48.1875 
Q 40.625 48.1875 47.75 41.5 
Q 54.890625 34.8125 54.890625 23.390625 
Q 54.890625 11.625 47.5625 5.09375 
Q 40.234375 -1.421875 26.90625 -1.421875 
Q 22.3125 -1.421875 17.546875 -0.640625 
Q 12.796875 0.140625 7.71875 1.703125 
L 7.71875 11.625 
Q 12.109375 9.234375 16.796875 8.0625 
Q 21.484375 6.890625 26.703125 6.890625 
Q 35.15625 6.890625 40.078125 11.328125 
Q 45.015625 15.765625 45.015625 23.390625 
Q 45.015625 31 40.078125 35.4375 
Q 35.15625 39.890625 26.703125 39.890625 
Q 22.75 39.890625 18.8125 39.015625 
Q 14.890625 38.140625 10.796875 36.28125 
z
" id="DejaVuSans-35"/>
      </defs>
      <g transform="translate(36.52 325.020772)scale(0.16 -0.16)">
       <use xlink:href="#DejaVuSans-35"/>
       <use x="63.623047" xlink:href="#DejaVuSans-30"/>
       <use x="127.246094" xlink:href="#DejaVuSans-30"/>
       <use x="190.869141" xlink:href="#DejaVuSans-30"/>
      </g>
     </g>
    </g>
    <g id="ytick_3">
     <g id="line2d_8">
      <g>
       <use style="stroke:#000000;stroke-width:0.8;" x="84.24" xlink:href="#mf54b53eef8" y="266.366826"/>
      </g>
     </g>
     <g id="text_9">
      <!-- 10000 -->
      <g transform="translate(26.34 272.445576)scale(0.16 -0.16)">
       <use xlink:href="#DejaVuSans-31"/>
       <use x="63.623047" xlink:href="#DejaVuSans-30"/>
       <use x="127.246094" xlink:href="#DejaVuSans-30"/>
       <use x="190.869141" xlink:href="#DejaVuSans-30"/>
       <use x="254.492188" xlink:href="#DejaVuSans-30"/>
      </g>
     </g>
    </g>
    <g id="ytick_4">
     <g id="line2d_9">
      <g>
       <use style="stroke:#000000;stroke-width:0.8;" x="84.24" xlink:href="#mf54b53eef8" y="213.79163"/>
      </g>
     </g>
     <g id="text_10">
      <!-- 15000 -->
      <g transform="translate(26.34 219.87038)scale(0.16 -0.16)">
       <use xlink:href="#DejaVuSans-31"/>
       <use x="63.623047" xlink:href="#DejaVuSans-35"/>
       <use x="127.246094" xlink:href="#DejaVuSans-30"/>
       <use x="190.869141" xlink:href="#DejaVuSans-30"/>
       <use x="254.492188" xlink:href="#DejaVuSans-30"/>
      </g>
     </g>
    </g>
    <g id="ytick_5">
     <g id="line2d_10">
      <g>
       <use style="stroke:#000000;stroke-width:0.8;" x="84.24" xlink:href="#mf54b53eef8" y="161.216435"/>
      </g>
     </g>
     <g id="text_11">
      <!-- 20000 -->
      <g transform="translate(26.34 167.295185)scale(0.16 -0.16)">
       <use xlink:href="#DejaVuSans-32"/>
       <use x="63.623047" xlink:href="#DejaVuSans-30"/>
       <use x="127.246094" xlink:href="#DejaVuSans-30"/>
       <use x="190.869141" xlink:href="#DejaVuSans-30"/>
       <use x="254.492188" xlink:href="#DejaVuSans-30"/>
      </g>
     </g>
    </g>
    <g id="ytick_6">
     <g id="line2d_11">
      <g>
       <use style="stroke:#000000;stroke-width:0.8;" x="84.24" xlink:href="#mf54b53eef8" y="108.641239"/>
      </g>
     </g>
     <g id="text_12">
      <!-- 25000 -->
      <g transform="translate(26.34 114.719989)scale(0.16 -0.16)">
       <use xlink:href="#DejaVuSans-32"/>
       <use x="63.623047" xlink:href="#DejaVuSans-35"/>
       <use x="127.246094" xlink:href="#DejaVuSans-30"/>
       <use x="190.869141" xlink:href="#DejaVuSans-30"/>
       <use x="254.492188" xlink:href="#DejaVuSans-30"/>
      </g>
     </g>
    </g>
    <g id="ytick_7">
     <g id="line2d_12">
      <g>
       <use style="stroke:#000000;stroke-width:0.8;" x="84.24" xlink:href="#mf54b53eef8" y="56.066043"/>
      </g>
     </g>
     <g id="text_13">
      <!-- 30000 -->
      <g transform="translate(26.34 62.144793)scale(0.16 -0.16)">
       <use xlink:href="#DejaVuSans-33"/>
       <use x="63.623047" xlink:href="#DejaVuSans-30"/>
       <use x="127.246094" xlink:href="#DejaVuSans-30"/>
       <use x="190.869141" xlink:href="#DejaVuSans-30"/>
       <use x="254.492188" xlink:href="#DejaVuSans-30"/>
      </g>
     </g>
    </g>
    <g id="text_14">
     <!-- Cumulative Reward -->
     <defs>
      <path d="M 64.40625 67.28125 
L 64.40625 56.890625 
Q 59.421875 61.53125 53.78125 63.8125 
Q 48.140625 66.109375 41.796875 66.109375 
Q 29.296875 66.109375 22.65625 58.46875 
Q 16.015625 50.828125 16.015625 36.375 
Q 16.015625 21.96875 22.65625 14.328125 
Q 29.296875 6.6875 41.796875 6.6875 
Q 48.140625 6.6875 53.78125 8.984375 
Q 59.421875 11.28125 64.40625 15.921875 
L 64.40625 5.609375 
Q 59.234375 2.09375 53.4375 0.328125 
Q 47.65625 -1.421875 41.21875 -1.421875 
Q 24.65625 -1.421875 15.125 8.703125 
Q 5.609375 18.84375 5.609375 36.375 
Q 5.609375 53.953125 15.125 64.078125 
Q 24.65625 74.21875 41.21875 74.21875 
Q 47.75 74.21875 53.53125 72.484375 
Q 59.328125 70.75 64.40625 67.28125 
z
" id="DejaVuSans-43"/>
      <path d="M 8.5 21.578125 
L 8.5 54.6875 
L 17.484375 54.6875 
L 17.484375 21.921875 
Q 17.484375 14.15625 20.5 10.265625 
Q 23.53125 6.390625 29.59375 6.390625 
Q 36.859375 6.390625 41.078125 11.03125 
Q 45.3125 15.671875 45.3125 23.6875 
L 45.3125 54.6875 
L 54.296875 54.6875 
L 54.296875 0 
L 45.3125 0 
L 45.3125 8.40625 
Q 42.046875 3.421875 37.71875 1 
Q 33.40625 -1.421875 27.6875 -1.421875 
Q 18.265625 -1.421875 13.375 4.4375 
Q 8.5 10.296875 8.5 21.578125 
z
M 31.109375 56 
z
" id="DejaVuSans-75"/>
      <path d="M 52 44.1875 
Q 55.375 50.25 60.0625 53.125 
Q 64.75 56 71.09375 56 
Q 79.640625 56 84.28125 50.015625 
Q 88.921875 44.046875 88.921875 33.015625 
L 88.921875 0 
L 79.890625 0 
L 79.890625 32.71875 
Q 79.890625 40.578125 77.09375 44.375 
Q 74.3125 48.1875 68.609375 48.1875 
Q 61.625 48.1875 57.5625 43.546875 
Q 53.515625 38.921875 53.515625 30.90625 
L 53.515625 0 
L 44.484375 0 
L 44.484375 32.71875 
Q 44.484375 40.625 41.703125 44.40625 
Q 38.921875 48.1875 33.109375 48.1875 
Q 26.21875 48.1875 22.15625 43.53125 
Q 18.109375 38.875 18.109375 30.90625 
L 18.109375 0 
L 9.078125 0 
L 9.078125 54.6875 
L 18.109375 54.6875 
L 18.109375 46.1875 
Q 21.1875 51.21875 25.484375 53.609375 
Q 29.78125 56 35.6875 56 
Q 41.65625 56 45.828125 52.96875 
Q 50 49.953125 52 44.1875 
z
" id="DejaVuSans-6d"/>
      <path d="M 9.421875 75.984375 
L 18.40625 75.984375 
L 18.40625 0 
L 9.421875 0 
z
" id="DejaVuSans-6c"/>
      <path d="M 34.28125 27.484375 
Q 23.390625 27.484375 19.1875 25 
Q 14.984375 22.515625 14.984375 16.5 
Q 14.984375 11.71875 18.140625 8.90625 
Q 21.296875 6.109375 26.703125 6.109375 
Q 34.1875 6.109375 38.703125 11.40625 
Q 43.21875 16.703125 43.21875 25.484375 
L 43.21875 27.484375 
z
M 52.203125 31.203125 
L 52.203125 0 
L 43.21875 0 
L 43.21875 8.296875 
Q 40.140625 3.328125 35.546875 0.953125 
Q 30.953125 -1.421875 24.3125 -1.421875 
Q 15.921875 -1.421875 10.953125 3.296875 
Q 6 8.015625 6 15.921875 
Q 6 25.140625 12.171875 29.828125 
Q 18.359375 34.515625 30.609375 34.515625 
L 43.21875 34.515625 
L 43.21875 35.40625 
Q 43.21875 41.609375 39.140625 45 
Q 35.0625 48.390625 27.6875 48.390625 
Q 23 48.390625 18.546875 47.265625 
Q 14.109375 46.140625 10.015625 43.890625 
L 10.015625 52.203125 
Q 14.9375 54.109375 19.578125 55.046875 
Q 24.21875 56 28.609375 56 
Q 40.484375 56 46.34375 49.84375 
Q 52.203125 43.703125 52.203125 31.203125 
z
" id="DejaVuSans-61"/>
      <path d="M 9.421875 54.6875 
L 18.40625 54.6875 
L 18.40625 0 
L 9.421875 0 
z
M 9.421875 75.984375 
L 18.40625 75.984375 
L 18.40625 64.59375 
L 9.421875 64.59375 
z
" id="DejaVuSans-69"/>
      <path d="M 2.984375 54.6875 
L 12.5 54.6875 
L 29.59375 8.796875 
L 46.6875 54.6875 
L 56.203125 54.6875 
L 35.6875 0 
L 23.484375 0 
z
" id="DejaVuSans-76"/>
      <path id="DejaVuSans-20"/>
      <path d="M 44.390625 34.1875 
Q 47.5625 33.109375 50.5625 29.59375 
Q 53.5625 26.078125 56.59375 19.921875 
L 66.609375 0 
L 56 0 
L 46.6875 18.703125 
Q 43.0625 26.03125 39.671875 28.421875 
Q 36.28125 30.8125 30.421875 30.8125 
L 19.671875 30.8125 
L 19.671875 0 
L 9.8125 0 
L 9.8125 72.90625 
L 32.078125 72.90625 
Q 44.578125 72.90625 50.734375 67.671875 
Q 56.890625 62.453125 56.890625 51.90625 
Q 56.890625 45.015625 53.6875 40.46875 
Q 50.484375 35.9375 44.390625 34.1875 
z
M 19.671875 64.796875 
L 19.671875 38.921875 
L 32.078125 38.921875 
Q 39.203125 38.921875 42.84375 42.21875 
Q 46.484375 45.515625 46.484375 51.90625 
Q 46.484375 58.296875 42.84375 61.546875 
Q 39.203125 64.796875 32.078125 64.796875 
z
" id="DejaVuSans-52"/>
      <path d="M 4.203125 54.6875 
L 13.1875 54.6875 
L 24.421875 12.015625 
L 35.59375 54.6875 
L 46.1875 54.6875 
L 57.421875 12.015625 
L 68.609375 54.6875 
L 77.59375 54.6875 
L 63.28125 0 
L 52.6875 0 
L 40.921875 44.828125 
L 29.109375 0 
L 18.5 0 
z
" id="DejaVuSans-77"/>
      <path d="M 41.109375 46.296875 
Q 39.59375 47.171875 37.8125 47.578125 
Q 36.03125 48 33.890625 48 
Q 26.265625 48 22.1875 43.046875 
Q 18.109375 38.09375 18.109375 28.8125 
L 18.109375 0 
L 9.078125 0 
L 9.078125 54.6875 
L 18.109375 54.6875 
L 18.109375 46.1875 
Q 20.953125 51.171875 25.484375 53.578125 
Q 30.03125 56 36.53125 56 
Q 37.453125 56 38.578125 55.875 
Q 39.703125 55.765625 41.0625 55.515625 
z
" id="DejaVuSans-72"/>
      <path d="M 45.40625 46.390625 
L 45.40625 75.984375 
L 54.390625 75.984375 
L 54.390625 0 
L 45.40625 0 
L 45.40625 8.203125 
Q 42.578125 3.328125 38.25 0.953125 
Q 33.9375 -1.421875 27.875 -1.421875 
Q 17.96875 -1.421875 11.734375 6.484375 
Q 5.515625 14.40625 5.515625 27.296875 
Q 5.515625 40.1875 11.734375 48.09375 
Q 17.96875 56 27.875 56 
Q 33.9375 56 38.25 53.625 
Q 42.578125 51.265625 45.40625 46.390625 
z
M 14.796875 27.296875 
Q 14.796875 17.390625 18.875 11.75 
Q 22.953125 6.109375 30.078125 6.109375 
Q 37.203125 6.109375 41.296875 11.75 
Q 45.40625 17.390625 45.40625 27.296875 
Q 45.40625 37.203125 41.296875 42.84375 
Q 37.203125 48.484375 30.078125 48.484375 
Q 22.953125 48.484375 18.875 42.84375 
Q 14.796875 37.203125 14.796875 27.296875 
z
" id="DejaVuSans-64"/>
     </defs>
     <g transform="translate(19.0125 277.21)rotate(-90)scale(0.16 -0.16)">
      <use xlink:href="#DejaVuSans-43"/>
      <use x="69.824219" xlink:href="#DejaVuSans-75"/>
      <use x="133.203125" xlink:href="#DejaVuSans-6d"/>
      <use x="230.615234" xlink:href="#DejaVuSans-75"/>
      <use x="293.994141" xlink:href="#DejaVuSans-6c"/>
      <use x="321.777344" xlink:href="#DejaVuSans-61"/>
      <use x="383.056641" xlink:href="#DejaVuSans-74"/>
      <use x="422.265625" xlink:href="#DejaVuSans-69"/>
      <use x="450.048828" xlink:href="#DejaVuSans-76"/>
      <use x="509.228516" xlink:href="#DejaVuSans-65"/>
      <use x="570.751953" xlink:href="#DejaVuSans-20"/>
      <use x="602.539062" xlink:href="#DejaVuSans-52"/>
      <use x="671.958984" xlink:href="#DejaVuSans-65"/>
      <use x="733.482422" xlink:href="#DejaVuSans-77"/>
      <use x="815.269531" xlink:href="#DejaVuSans-61"/>
      <use x="876.548828" xlink:href="#DejaVuSans-72"/>
      <use x="917.646484" xlink:href="#DejaVuSans-64"/>
     </g>
    </g>
   </g>
   <g id="line2d_13">
    <path clip-path="url(#p58b772ab1d)" d="M 106.92 371.51971 
L 110.881572 371.343607 
L 113.852751 371.078695 
L 116.82393 370.506913 
L 119.795109 369.109755 
L 128.708646 363.70844 
L 130.689432 362.096738 
L 132.670218 360.132079 
L 136.63179 355.844357 
L 139.602969 352.18307 
L 143.564541 347.05505 
L 144.554934 345.945402 
L 145.545328 345.15021 
L 148.516507 343.554269 
L 150.497293 343.067775 
L 152.478079 342.81959 
L 154.458865 342.617823 
L 155.449258 342.405439 
L 160.401223 339.598471 
L 166.343581 335.439445 
L 168.324367 333.546487 
L 174.266725 327.44959 
L 175.257118 326.688443 
L 180.209083 321.289078 
L 181.199476 320.607218 
L 183.180262 319.814131 
L 187.141834 318.932884 
L 190.113013 318.508468 
L 193.084192 317.574077 
L 194.074585 317.123018 
L 196.055371 315.857657 
L 200.016943 312.909399 
L 201.007336 312.42184 
L 202.988122 311.900447 
L 209.920873 310.91588 
L 210.911266 310.790404 
L 211.901659 310.544384 
L 212.892052 310.181661 
L 213.882445 309.956668 
L 214.872838 309.484554 
L 220.815197 306.003815 
L 222.795983 305.357533 
L 227.747948 304.404098 
L 229.728734 304.060126 
L 231.70952 303.813057 
L 233.690306 303.346239 
L 235.671092 302.837501 
L 242.603843 301.758901 
L 245.575022 300.920075 
L 247.555808 300.065492 
L 248.546201 299.485866 
L 249.536594 299.150746 
L 250.526987 298.56383 
L 255.478952 294.090955 
L 256.469345 293.481193 
L 258.450131 291.653853 
L 259.440524 290.844203 
L 261.42131 288.863913 
L 262.411703 288.010445 
L 266.373275 283.427681 
L 267.363668 282.65393 
L 268.354061 282.138369 
L 269.344454 281.775639 
L 271.32524 281.376211 
L 278.257991 280.294303 
L 281.22917 280.251709 
L 560.52 280.251709 
L 560.52 280.251709 
" style="fill:none;stroke:#0000ff;stroke-dasharray:7.4,3.2;stroke-dashoffset:0;stroke-width:2;"/>
   </g>
   <g id="line2d_14">
    <path clip-path="url(#p58b772ab1d)" d="M 106.92 371.52 
L 109.891179 371.402087 
L 112.862358 371.079779 
L 114.843144 370.694239 
L 116.82393 370.132284 
L 119.795109 368.477398 
L 124.747074 365.380327 
L 129.699039 362.231221 
L 132.670218 360.06419 
L 135.641397 357.595793 
L 137.622183 355.64732 
L 139.602969 353.374612 
L 141.583755 350.640207 
L 143.564541 347.758083 
L 144.554934 346.509196 
L 145.545328 345.522326 
L 146.535721 344.875075 
L 147.526114 344.463269 
L 148.516507 344.214353 
L 152.478079 343.608106 
L 157.430044 340.528011 
L 160.401223 338.619154 
L 162.382009 337.127454 
L 164.362795 335.333999 
L 168.324367 331.252326 
L 170.305153 328.920087 
L 175.257118 322.308854 
L 176.247511 321.330435 
L 177.237904 320.631575 
L 179.21869 319.721713 
L 180.209083 319.389858 
L 182.189869 319.038552 
L 186.151441 318.459383 
L 187.141834 318.121209 
L 189.12262 316.993745 
L 190.113013 316.441465 
L 194.074585 313.704063 
L 196.055371 312.582628 
L 198.036157 311.683275 
L 199.02655 311.326139 
L 201.997729 310.870018 
L 208.93048 309.91227 
L 209.920873 309.374176 
L 211.901659 308.718299 
L 213.882445 307.611519 
L 215.863231 306.798966 
L 217.844017 306.236134 
L 221.80559 305.742595 
L 222.795983 305.336931 
L 228.738341 303.917624 
L 230.719127 303.421251 
L 233.690306 302.969511 
L 235.671092 302.64824 
L 237.651878 302.191294 
L 243.594236 300.023711 
L 245.575022 299.047946 
L 246.565415 298.741695 
L 250.526987 295.706077 
L 251.51738 294.68014 
L 252.507773 293.815255 
L 253.498166 292.737855 
L 254.488559 291.981352 
L 255.478952 291.076068 
L 258.450131 287.557447 
L 259.440524 286.788031 
L 263.402096 282.652914 
L 264.392489 281.848848 
L 265.382882 281.310216 
L 266.373275 280.918546 
L 268.354061 280.469912 
L 272.315633 279.798039 
L 273.306026 279.573657 
L 276.277205 278.401134 
L 279.248384 276.704436 
L 283.209956 273.98407 
L 286.181135 271.658628 
L 289.152314 269.020388 
L 292.123493 266.070161 
L 295.094672 262.71697 
L 298.065852 258.911767 
L 305.988996 248.103907 
L 310.940961 240.958249 
L 313.91214 236.302107 
L 319.854498 226.404256 
L 320.844891 225.321514 
L 322.825677 222.044428 
L 323.81607 220.990847 
L 324.806463 219.514031 
L 325.796856 219.056748 
L 326.787249 217.529918 
L 327.777642 217.353527 
L 331.739214 217.318551 
L 560.52 217.318551 
L 560.52 217.318551 
" style="fill:none;stroke:#008000;stroke-dasharray:2,3.3;stroke-dashoffset:0;stroke-width:2;"/>
   </g>
   <g id="line2d_15">
    <path clip-path="url(#p58b772ab1d)" d="M 106.92 371.519328 
L 109.891179 371.399288 
L 113.852751 370.955694 
L 115.833537 370.456752 
L 117.814323 369.60336 
L 119.795109 368.587959 
L 122.766288 366.692867 
L 125.737467 364.621869 
L 128.708646 362.426436 
L 131.679825 360.086647 
L 135.641397 356.620671 
L 139.602969 352.716076 
L 142.574148 349.216813 
L 144.554934 346.817956 
L 145.545328 345.883587 
L 146.535721 345.281931 
L 147.526114 344.847309 
L 149.5069 344.311831 
L 154.458865 343.704844 
L 155.449258 343.315339 
L 157.430044 341.735387 
L 160.401223 339.069513 
L 163.372402 336.078354 
L 166.343581 332.688522 
L 169.31476 329.279972 
L 173.276332 325.1228 
L 174.266725 324.156424 
L 176.247511 321.668736 
L 177.237904 320.586348 
L 178.228297 319.804461 
L 179.21869 319.190662 
L 181.199476 318.349715 
L 183.180262 317.963344 
L 188.132227 317.32617 
L 189.12262 316.930017 
L 191.103406 315.768671 
L 197.045764 312.082887 
L 199.02655 311.205724 
L 201.007336 310.738635 
L 203.978515 310.345564 
L 211.901659 309.366828 
L 212.892052 309.015422 
L 214.872838 307.892533 
L 215.863231 307.558713 
L 217.844017 306.464968 
L 218.83441 306.040674 
L 220.815197 305.510162 
L 223.786376 305.082164 
L 224.776769 304.953896 
L 225.767162 304.418446 
L 227.747948 303.933847 
L 231.70952 303.22699 
L 233.690306 302.781951 
L 239.632664 301.767888 
L 241.61345 301.058239 
L 244.584629 299.85696 
L 246.565415 299.245585 
L 247.555808 298.760465 
L 249.536594 297.433857 
L 251.51738 295.695799 
L 254.488559 292.63317 
L 257.459738 289.558382 
L 261.42131 285.128634 
L 264.392489 281.564044 
L 265.382882 280.588522 
L 267.363668 279.32043 
L 269.344454 278.531351 
L 271.32524 278.086573 
L 275.286812 277.319181 
L 276.277205 276.982086 
L 278.257991 275.943975 
L 279.248384 275.592645 
L 280.238777 275.416126 
L 281.22917 274.790911 
L 283.209956 274.538698 
L 284.200349 274.090388 
L 285.190742 273.976586 
L 286.181135 273.363833 
L 288.161921 272.719941 
L 291.1331 270.2294 
L 294.104279 267.097115 
L 297.075459 263.605206 
L 301.037031 258.468422 
L 309.950568 245.863381 
L 312.921747 241.559635 
L 316.883319 235.344107 
L 320.844891 228.549235 
L 321.835284 227.06759 
L 322.825677 225.988747 
L 325.796856 221.139079 
L 333.72 209.745223 
L 338.671965 201.55042 
L 340.652751 198.701437 
L 341.643144 198.06754 
L 344.614323 196.583998 
L 345.604716 196.237901 
L 347.585502 195.889959 
L 352.537467 195.420566 
L 353.52786 195.00293 
L 354.518253 194.78369 
L 356.499039 193.864345 
L 358.479825 192.670968 
L 360.460611 191.238339 
L 367.393362 185.356464 
L 368.383755 184.790941 
L 369.374148 183.889574 
L 370.364541 183.175169 
L 372.345328 182.147476 
L 373.335721 181.597382 
L 379.278079 176.8155 
L 382.249258 175.293115 
L 387.201223 173.005514 
L 389.182009 172.330135 
L 391.162795 171.67999 
L 393.143581 171.247846 
L 396.11476 170.878495 
L 399.085939 170.517303 
L 400.076332 170.063572 
L 402.057118 168.876889 
L 405.028297 166.621509 
L 408.989869 163.120878 
L 411.961048 160.354459 
L 415.92262 156.385655 
L 418.893799 153.075452 
L 420.874585 150.675238 
L 422.855371 148.027604 
L 425.82655 143.901356 
L 426.816943 142.835368 
L 427.807336 141.939383 
L 429.788122 140.778187 
L 431.768908 139.969181 
L 434.740087 139.019697 
L 442.663231 136.649288 
L 446.624803 136.012425 
L 455.538341 134.940606 
L 456.528734 134.633824 
L 458.50952 133.466485 
L 460.490306 132.089773 
L 462.471092 130.560692 
L 466.432664 127.041731 
L 468.41345 125.679854 
L 471.384629 124.074338 
L 473.365415 122.467088 
L 476.336594 119.535916 
L 477.326987 118.435343 
L 478.31738 117.505374 
L 480.298166 114.961713 
L 484.259738 109.445594 
L 486.240524 107.276838 
L 488.22131 105.111057 
L 490.202096 102.201043 
L 491.192489 101.003811 
L 493.173275 99.140373 
L 495.154061 97.793703 
L 497.134847 96.797282 
L 499.115633 96.219639 
L 503.077205 95.699862 
L 511.000349 94.733317 
L 511.990742 94.520631 
L 514.961921 93.007057 
L 515.952314 92.716765 
L 522.885066 89.707538 
L 529.817817 85.81116 
L 531.798603 84.47833 
L 533.779389 83.176803 
L 536.750568 81.017592 
L 538.731354 78.883645 
L 541.702533 75.121935 
L 542.692926 73.789731 
L 545.664105 70.809097 
L 546.654498 69.410606 
L 548.635284 67.027477 
L 552.596856 61.706193 
L 557.548821 54.57798 
L 559.529607 51.878246 
L 560.52 51.103331 
L 560.52 51.103331 
" style="fill:none;stroke:#800080;stroke-dasharray:12.8,3.2,2,3.2;stroke-dashoffset:0;stroke-width:2;"/>
   </g>
   <g id="line2d_16">
    <path clip-path="url(#p58b772ab1d)" d="M 106.92 371.519777 
L 109.891179 371.405051 
L 112.862358 371.09904 
L 114.843144 370.779015 
L 116.82393 370.102797 
L 119.795109 368.489752 
L 121.775895 367.199841 
L 123.756681 365.603222 
L 127.718253 362.172036 
L 130.689432 359.0746 
L 134.651004 354.544816 
L 137.622183 350.711201 
L 142.574148 343.909429 
L 144.554934 341.258225 
L 145.545328 340.296994 
L 146.535721 339.670215 
L 147.526114 339.260546 
L 149.5069 338.829929 
L 152.478079 338.484571 
L 153.468472 338.241623 
L 156.439651 336.593994 
L 159.41083 334.644611 
L 162.382009 332.515871 
L 165.353188 329.979003 
L 167.333974 327.995418 
L 171.295546 323.464136 
L 172.285939 322.346323 
L 173.276332 321.549842 
L 174.266725 320.42831 
L 176.247511 317.868117 
L 177.237904 316.750795 
L 178.228297 315.855538 
L 179.21869 315.196572 
L 181.199476 314.300314 
L 182.189869 313.973362 
L 184.170655 313.637889 
L 187.141834 313.285642 
L 188.132227 313.047118 
L 189.12262 312.653364 
L 193.084192 310.155018 
L 197.045764 307.559511 
L 199.02655 306.570712 
L 201.007336 305.949152 
L 205.959301 305.238123 
L 210.911266 304.52568 
L 212.892052 303.432471 
L 215.863231 301.528455 
L 217.844017 300.594309 
L 219.824803 299.952486 
L 223.786376 299.377339 
L 224.776769 298.90699 
L 226.757555 298.460177 
L 229.728734 297.906289 
L 231.70952 297.352536 
L 233.690306 297.050754 
L 236.661485 296.745333 
L 237.651878 296.466632 
L 241.61345 294.852355 
L 244.584629 293.755839 
L 246.565415 292.486788 
L 247.555808 291.645771 
L 250.526987 288.635161 
L 252.507773 286.54259 
L 253.498166 285.687674 
L 258.450131 280.132406 
L 261.42131 276.1798 
L 262.411703 275.07441 
L 263.402096 274.249241 
L 264.392489 273.651497 
L 266.373275 272.884502 
L 268.354061 272.455311 
L 272.315633 271.753822 
L 275.286812 270.558053 
L 277.267598 269.503128 
L 281.22917 266.785537 
L 284.200349 264.440933 
L 286.181135 262.563977 
L 288.161921 260.445729 
L 290.142707 258.124127 
L 293.113886 254.297604 
L 299.056245 245.948954 
L 304.00821 238.420328 
L 314.902533 220.859797 
L 317.873712 215.942746 
L 318.864105 214.385801 
L 319.854498 213.067529 
L 320.844891 212.086546 
L 322.825677 209.263702 
L 323.81607 207.97495 
L 325.796856 204.872732 
L 332.729607 192.761579 
L 335.700786 187.777069 
L 336.691179 186.380807 
L 337.681572 185.217217 
L 338.671965 184.353076 
L 339.662358 183.66506 
L 340.652751 183.170615 
L 342.633537 182.546426 
L 348.575895 181.566865 
L 349.566288 181.229598 
L 351.547074 180.114394 
L 353.52786 178.667407 
L 357.489432 175.531889 
L 360.460611 172.958348 
L 364.422183 169.837355 
L 371.354934 162.693252 
L 373.335721 160.810255 
L 376.3069 158.81202 
L 378.287686 157.690537 
L 382.249258 155.707626 
L 384.230044 154.893696 
L 386.21083 154.269484 
L 389.182009 153.789957 
L 392.153188 153.380139 
L 393.143581 153.126092 
L 395.124367 151.662486 
L 398.095546 149.093624 
L 401.066725 146.200132 
L 403.047511 144.095254 
L 409.980262 136.152281 
L 412.951441 132.379981 
L 415.92262 128.192647 
L 418.893799 123.974202 
L 419.884192 122.894158 
L 420.874585 122.056728 
L 421.864978 121.454483 
L 423.845764 120.665412 
L 428.797729 119.131089 
L 433.749694 117.675497 
L 435.73048 117.286122 
L 440.682445 116.365488 
L 442.663231 116.0166 
L 446.624803 115.44483 
L 447.615197 115.18364 
L 448.60559 114.784224 
L 450.586376 113.220123 
L 454.547948 109.582073 
L 460.490306 103.839434 
L 462.471092 102.581135 
L 464.451878 100.86644 
L 469.403843 95.850823 
L 470.394236 95.087902 
L 476.336594 86.835562 
L 477.326987 85.830365 
L 478.31738 84.564707 
L 481.288559 80.211299 
L 483.269345 77.518318 
L 484.259738 76.381158 
L 485.250131 75.547494 
L 486.240524 74.882424 
L 488.22131 74.005488 
L 490.202096 73.524182 
L 496.144454 72.717996 
L 501.096419 72.068671 
L 502.086812 71.834201 
L 507.038777 69.40665 
L 511.990742 67.30466 
L 518.923493 63.662634 
L 519.913886 63.003005 
L 524.865852 60.668858 
L 526.846638 59.48591 
L 527.837031 58.951204 
L 528.827424 58.148691 
L 530.80821 55.893706 
L 533.779389 52.12757 
L 539.721747 43.790126 
L 545.664105 35.412463 
L 549.625677 29.256653 
L 551.606463 25.92 
L 560.52 25.92 
L 560.52 25.92 
" style="fill:none;stroke:#ff0000;stroke-linecap:square;stroke-width:2;"/>
   </g>
   <g id="patch_3">
    <path d="M 84.24 388.8 
L 84.24 8.64 
" style="fill:none;stroke:#000000;stroke-linecap:square;stroke-linejoin:miter;stroke-width:0.8;"/>
   </g>
   <g id="patch_4">
    <path d="M 583.2 388.8 
L 583.2 8.64 
" style="fill:none;stroke:#000000;stroke-linecap:square;stroke-linejoin:miter;stroke-width:0.8;"/>
   </g>
   <g id="patch_5">
    <path d="M 84.24 388.8 
L 583.2 388.8 
" style="fill:none;stroke:#000000;stroke-linecap:square;stroke-linejoin:miter;stroke-width:0.8;"/>
   </g>
   <g id="patch_6">
    <path d="M 84.24 8.64 
L 583.2 8.64 
" style="fill:none;stroke:#000000;stroke-linecap:square;stroke-linejoin:miter;stroke-width:0.8;"/>
   </g>
   <g id="legend_1">
    <g id="patch_7">
     <path d="M 95.44 115.38 
L 292.2925 115.38 
Q 295.4925 115.38 295.4925 112.18 
L 295.4925 19.84 
Q 295.4925 16.64 292.2925 16.64 
L 95.44 16.64 
Q 92.24 16.64 92.24 19.84 
L 92.24 112.18 
Q 92.24 115.38 95.44 115.38 
z
" style="fill:#ffffff;opacity:0.8;stroke:#cccccc;stroke-linejoin:miter;"/>
    </g>
    <g id="line2d_17">
     <path d="M 98.64 29.5975 
L 130.64 29.5975 
" style="fill:none;stroke:#0000ff;stroke-dasharray:7.4,3.2;stroke-dashoffset:0;stroke-width:2;"/>
    </g>
    <g id="line2d_18"/>
    <g id="text_15">
     <!-- sub-policy0 -->
     <defs>
      <path d="M 44.28125 53.078125 
L 44.28125 44.578125 
Q 40.484375 46.53125 36.375 47.5 
Q 32.28125 48.484375 27.875 48.484375 
Q 21.1875 48.484375 17.84375 46.4375 
Q 14.5 44.390625 14.5 40.28125 
Q 14.5 37.15625 16.890625 35.375 
Q 19.28125 33.59375 26.515625 31.984375 
L 29.59375 31.296875 
Q 39.15625 29.25 43.1875 25.515625 
Q 47.21875 21.78125 47.21875 15.09375 
Q 47.21875 7.46875 41.1875 3.015625 
Q 35.15625 -1.421875 24.609375 -1.421875 
Q 20.21875 -1.421875 15.453125 -0.5625 
Q 10.6875 0.296875 5.421875 2 
L 5.421875 11.28125 
Q 10.40625 8.6875 15.234375 7.390625 
Q 20.0625 6.109375 24.8125 6.109375 
Q 31.15625 6.109375 34.5625 8.28125 
Q 37.984375 10.453125 37.984375 14.40625 
Q 37.984375 18.0625 35.515625 20.015625 
Q 33.0625 21.96875 24.703125 23.78125 
L 21.578125 24.515625 
Q 13.234375 26.265625 9.515625 29.90625 
Q 5.8125 33.546875 5.8125 39.890625 
Q 5.8125 47.609375 11.28125 51.796875 
Q 16.75 56 26.8125 56 
Q 31.78125 56 36.171875 55.265625 
Q 40.578125 54.546875 44.28125 53.078125 
z
" id="DejaVuSans-73"/>
      <path d="M 48.6875 27.296875 
Q 48.6875 37.203125 44.609375 42.84375 
Q 40.53125 48.484375 33.40625 48.484375 
Q 26.265625 48.484375 22.1875 42.84375 
Q 18.109375 37.203125 18.109375 27.296875 
Q 18.109375 17.390625 22.1875 11.75 
Q 26.265625 6.109375 33.40625 6.109375 
Q 40.53125 6.109375 44.609375 11.75 
Q 48.6875 17.390625 48.6875 27.296875 
z
M 18.109375 46.390625 
Q 20.953125 51.265625 25.265625 53.625 
Q 29.59375 56 35.59375 56 
Q 45.5625 56 51.78125 48.09375 
Q 58.015625 40.1875 58.015625 27.296875 
Q 58.015625 14.40625 51.78125 6.484375 
Q 45.5625 -1.421875 35.59375 -1.421875 
Q 29.59375 -1.421875 25.265625 0.953125 
Q 20.953125 3.328125 18.109375 8.203125 
L 18.109375 0 
L 9.078125 0 
L 9.078125 75.984375 
L 18.109375 75.984375 
z
" id="DejaVuSans-62"/>
      <path d="M 4.890625 31.390625 
L 31.203125 31.390625 
L 31.203125 23.390625 
L 4.890625 23.390625 
z
" id="DejaVuSans-2d"/>
      <path d="M 30.609375 48.390625 
Q 23.390625 48.390625 19.1875 42.75 
Q 14.984375 37.109375 14.984375 27.296875 
Q 14.984375 17.484375 19.15625 11.84375 
Q 23.34375 6.203125 30.609375 6.203125 
Q 37.796875 6.203125 41.984375 11.859375 
Q 46.1875 17.53125 46.1875 27.296875 
Q 46.1875 37.015625 41.984375 42.703125 
Q 37.796875 48.390625 30.609375 48.390625 
z
M 30.609375 56 
Q 42.328125 56 49.015625 48.375 
Q 55.71875 40.765625 55.71875 27.296875 
Q 55.71875 13.875 49.015625 6.21875 
Q 42.328125 -1.421875 30.609375 -1.421875 
Q 18.84375 -1.421875 12.171875 6.21875 
Q 5.515625 13.875 5.515625 27.296875 
Q 5.515625 40.765625 12.171875 48.375 
Q 18.84375 56 30.609375 56 
z
" id="DejaVuSans-6f"/>
      <path d="M 48.78125 52.59375 
L 48.78125 44.1875 
Q 44.96875 46.296875 41.140625 47.34375 
Q 37.3125 48.390625 33.40625 48.390625 
Q 24.65625 48.390625 19.8125 42.84375 
Q 14.984375 37.3125 14.984375 27.296875 
Q 14.984375 17.28125 19.8125 11.734375 
Q 24.65625 6.203125 33.40625 6.203125 
Q 37.3125 6.203125 41.140625 7.25 
Q 44.96875 8.296875 48.78125 10.40625 
L 48.78125 2.09375 
Q 45.015625 0.34375 40.984375 -0.53125 
Q 36.96875 -1.421875 32.421875 -1.421875 
Q 20.0625 -1.421875 12.78125 6.34375 
Q 5.515625 14.109375 5.515625 27.296875 
Q 5.515625 40.671875 12.859375 48.328125 
Q 20.21875 56 33.015625 56 
Q 37.15625 56 41.109375 55.140625 
Q 45.0625 54.296875 48.78125 52.59375 
z
" id="DejaVuSans-63"/>
      <path d="M 32.171875 -5.078125 
Q 28.375 -14.84375 24.75 -17.8125 
Q 21.140625 -20.796875 15.09375 -20.796875 
L 7.90625 -20.796875 
L 7.90625 -13.28125 
L 13.1875 -13.28125 
Q 16.890625 -13.28125 18.9375 -11.515625 
Q 21 -9.765625 23.484375 -3.21875 
L 25.09375 0.875 
L 2.984375 54.6875 
L 12.5 54.6875 
L 29.59375 11.921875 
L 46.6875 54.6875 
L 56.203125 54.6875 
z
" id="DejaVuSans-79"/>
     </defs>
     <g transform="translate(143.44 35.1975)scale(0.16 -0.16)">
      <use xlink:href="#DejaVuSans-73"/>
      <use x="52.099609" xlink:href="#DejaVuSans-75"/>
      <use x="115.478516" xlink:href="#DejaVuSans-62"/>
      <use x="178.955078" xlink:href="#DejaVuSans-2d"/>
      <use x="215.039062" xlink:href="#DejaVuSans-70"/>
      <use x="278.515625" xlink:href="#DejaVuSans-6f"/>
      <use x="339.697266" xlink:href="#DejaVuSans-6c"/>
      <use x="367.480469" xlink:href="#DejaVuSans-69"/>
      <use x="395.263672" xlink:href="#DejaVuSans-63"/>
      <use x="450.244141" xlink:href="#DejaVuSans-79"/>
      <use x="509.423828" xlink:href="#DejaVuSans-30"/>
     </g>
    </g>
    <g id="line2d_19">
     <path d="M 98.64 53.0825 
L 130.64 53.0825 
" style="fill:none;stroke:#008000;stroke-dasharray:2,3.3;stroke-dashoffset:0;stroke-width:2;"/>
    </g>
    <g id="line2d_20"/>
    <g id="text_16">
     <!-- sub-policy1 -->
     <g transform="translate(143.44 58.6825)scale(0.16 -0.16)">
      <use xlink:href="#DejaVuSans-73"/>
      <use x="52.099609" xlink:href="#DejaVuSans-75"/>
      <use x="115.478516" xlink:href="#DejaVuSans-62"/>
      <use x="178.955078" xlink:href="#DejaVuSans-2d"/>
      <use x="215.039062" xlink:href="#DejaVuSans-70"/>
      <use x="278.515625" xlink:href="#DejaVuSans-6f"/>
      <use x="339.697266" xlink:href="#DejaVuSans-6c"/>
      <use x="367.480469" xlink:href="#DejaVuSans-69"/>
      <use x="395.263672" xlink:href="#DejaVuSans-63"/>
      <use x="450.244141" xlink:href="#DejaVuSans-79"/>
      <use x="509.423828" xlink:href="#DejaVuSans-31"/>
     </g>
    </g>
    <g id="line2d_21">
     <path d="M 98.64 76.5675 
L 130.64 76.5675 
" style="fill:none;stroke:#800080;stroke-dasharray:12.8,3.2,2,3.2;stroke-dashoffset:0;stroke-width:2;"/>
    </g>
    <g id="line2d_22"/>
    <g id="text_17">
     <!-- sub-policy2 -->
     <g transform="translate(143.44 82.1675)scale(0.16 -0.16)">
      <use xlink:href="#DejaVuSans-73"/>
      <use x="52.099609" xlink:href="#DejaVuSans-75"/>
      <use x="115.478516" xlink:href="#DejaVuSans-62"/>
      <use x="178.955078" xlink:href="#DejaVuSans-2d"/>
      <use x="215.039062" xlink:href="#DejaVuSans-70"/>
      <use x="278.515625" xlink:href="#DejaVuSans-6f"/>
      <use x="339.697266" xlink:href="#DejaVuSans-6c"/>
      <use x="367.480469" xlink:href="#DejaVuSans-69"/>
      <use x="395.263672" xlink:href="#DejaVuSans-63"/>
      <use x="450.244141" xlink:href="#DejaVuSans-79"/>
      <use x="509.423828" xlink:href="#DejaVuSans-32"/>
     </g>
    </g>
    <g id="line2d_23">
     <path d="M 98.64 100.0525 
L 130.64 100.0525 
" style="fill:none;stroke:#ff0000;stroke-linecap:square;stroke-width:2;"/>
    </g>
    <g id="line2d_24"/>
    <g id="text_18">
     <!-- aggregated-policy -->
     <defs>
      <path d="M 45.40625 27.984375 
Q 45.40625 37.75 41.375 43.109375 
Q 37.359375 48.484375 30.078125 48.484375 
Q 22.859375 48.484375 18.828125 43.109375 
Q 14.796875 37.75 14.796875 27.984375 
Q 14.796875 18.265625 18.828125 12.890625 
Q 22.859375 7.515625 30.078125 7.515625 
Q 37.359375 7.515625 41.375 12.890625 
Q 45.40625 18.265625 45.40625 27.984375 
z
M 54.390625 6.78125 
Q 54.390625 -7.171875 48.1875 -13.984375 
Q 42 -20.796875 29.203125 -20.796875 
Q 24.46875 -20.796875 20.265625 -20.09375 
Q 16.0625 -19.390625 12.109375 -17.921875 
L 12.109375 -9.1875 
Q 16.0625 -11.328125 19.921875 -12.34375 
Q 23.78125 -13.375 27.78125 -13.375 
Q 36.625 -13.375 41.015625 -8.765625 
Q 45.40625 -4.15625 45.40625 5.171875 
L 45.40625 9.625 
Q 42.625 4.78125 38.28125 2.390625 
Q 33.9375 0 27.875 0 
Q 17.828125 0 11.671875 7.65625 
Q 5.515625 15.328125 5.515625 27.984375 
Q 5.515625 40.671875 11.671875 48.328125 
Q 17.828125 56 27.875 56 
Q 33.9375 56 38.28125 53.609375 
Q 42.625 51.21875 45.40625 46.390625 
L 45.40625 54.6875 
L 54.390625 54.6875 
z
" id="DejaVuSans-67"/>
     </defs>
     <g transform="translate(143.44 105.6525)scale(0.16 -0.16)">
      <use xlink:href="#DejaVuSans-61"/>
      <use x="61.279297" xlink:href="#DejaVuSans-67"/>
      <use x="124.755859" xlink:href="#DejaVuSans-67"/>
      <use x="188.232422" xlink:href="#DejaVuSans-72"/>
      <use x="229.314453" xlink:href="#DejaVuSans-65"/>
      <use x="290.837891" xlink:href="#DejaVuSans-67"/>
      <use x="354.314453" xlink:href="#DejaVuSans-61"/>
      <use x="415.59375" xlink:href="#DejaVuSans-74"/>
      <use x="454.802734" xlink:href="#DejaVuSans-65"/>
      <use x="516.326172" xlink:href="#DejaVuSans-64"/>
      <use x="579.802734" xlink:href="#DejaVuSans-2d"/>
      <use x="615.886719" xlink:href="#DejaVuSans-70"/>
      <use x="679.363281" xlink:href="#DejaVuSans-6f"/>
      <use x="740.544922" xlink:href="#DejaVuSans-6c"/>
      <use x="768.328125" xlink:href="#DejaVuSans-69"/>
      <use x="796.111328" xlink:href="#DejaVuSans-63"/>
      <use x="851.091797" xlink:href="#DejaVuSans-79"/>
     </g>
    </g>
   </g>
  </g>
 </g>
 <defs>
  <clipPath id="p58b772ab1d">
   <rect height="380.16" width="498.96" x="84.24" y="8.64"/>
  </clipPath>
 </defs>
</svg>
