<?xml version="1.0" encoding="utf-8" standalone="no"?>
<!DOCTYPE svg PUBLIC "-//W3C//DTD SVG 1.1//EN"
  "http://www.w3.org/Graphics/SVG/1.1/DTD/svg11.dtd">
<!-- Created with matplotlib (http://matplotlib.org/) -->
<svg height="345pt" version="1.1" viewBox="0 0 460 345" width="460pt" xmlns="http://www.w3.org/2000/svg" xmlns:xlink="http://www.w3.org/1999/xlink">
 <defs>
  <style type="text/css">
*{stroke-linecap:butt;stroke-linejoin:round;}
  </style>
 </defs>
 <g id="figure_1">
  <g id="patch_1">
   <path d="M 0 345.6 
L 460.8 345.6 
L 460.8 0 
L 0 0 
z
" style="fill:#ffffff;"/>
  </g>
  <g id="axes_1">
   <g id="patch_2">
    <path d="M 82.944 300.672 
L 451.584 300.672 
L 451.584 6.912 
L 82.944 6.912 
z
" style="fill:#ffffff;"/>
   </g>
   <g id="matplotlib.axis_1">
    <g id="xtick_1">
     <g id="line2d_1">
      <defs>
       <path d="M 0 0 
L 0 3.5 
" id="mf19c23fe2f" style="stroke:#000000;stroke-width:0.8;"/>
      </defs>
      <g>
       <use style="stroke:#000000;stroke-width:0.8;" x="99.700364" xlink:href="#mf19c23fe2f" y="300.672"/>
      </g>
     </g>
     <g id="text_1">
      <!-- 0 -->
      <defs>
       <path d="M 3.125 29.296875 
Q 3.90625 50 6.4375 56.046875 
Q 8.984375 62.109375 13.671875 66.015625 
Q 18.359375 69.921875 25.1875 69.921875 
Q 32.03125 69.921875 37.109375 64.25 
Q 42.1875 58.59375 43.75 50 
Q 45.3125 41.40625 44.71875 30.265625 
Q 44.140625 19.140625 40.8125 12.109375 
Q 37.5 5.078125 30.859375 2.34375 
Q 24.21875 -0.390625 17.578125 2.921875 
Q 10.9375 6.25 8.203125 11.71875 
Q 5.46875 17.1875 4.296875 23.234375 
Q 3.125 29.296875 3.90625 50 
z
M 12.890625 52.734375 
Q 10.546875 31.25 12.5 22.84375 
Q 14.453125 14.453125 18.9375 10.9375 
Q 23.4375 7.421875 28.125 9.5625 
Q 32.8125 11.71875 34.953125 18.15625 
Q 37.109375 24.609375 37.109375 32.21875 
Q 37.109375 39.84375 36.515625 46.09375 
Q 35.9375 52.34375 33 57.421875 
Q 30.078125 62.5 25.1875 62.6875 
Q 20.3125 62.890625 16.59375 57.8125 
Q 12.890625 52.734375 10.546875 31.25 
z
" id="SimHei-30"/>
      </defs>
      <g transform="translate(95.700364 318.672)scale(0.16 -0.16)">
       <use xlink:href="#SimHei-30"/>
      </g>
     </g>
    </g>
    <g id="xtick_2">
     <g id="line2d_2">
      <g>
       <use style="stroke:#000000;stroke-width:0.8;" x="173.193187" xlink:href="#mf19c23fe2f" y="300.672"/>
      </g>
     </g>
     <g id="text_2">
      <!-- 100 -->
      <defs>
       <path d="M 21.875 56.25 
Q 16.796875 51.171875 8.984375 46.484375 
L 8.984375 53.90625 
Q 18.75 60.546875 25 69.53125 
L 29.6875 69.53125 
L 29.6875 2.34375 
L 21.875 2.34375 
z
" id="SimHei-31"/>
      </defs>
      <g transform="translate(161.193187 318.672)scale(0.16 -0.16)">
       <use xlink:href="#SimHei-31"/>
       <use x="50" xlink:href="#SimHei-30"/>
       <use x="100" xlink:href="#SimHei-30"/>
      </g>
     </g>
    </g>
    <g id="xtick_3">
     <g id="line2d_3">
      <g>
       <use style="stroke:#000000;stroke-width:0.8;" x="246.68601" xlink:href="#mf19c23fe2f" y="300.672"/>
      </g>
     </g>
     <g id="text_3">
      <!-- 200 -->
      <defs>
       <path d="M 4.6875 3.90625 
Q 5.078125 9.765625 10.15625 14.453125 
Q 15.234375 19.140625 23.046875 29.09375 
Q 30.859375 39.0625 33.203125 44.53125 
Q 35.546875 50 34.953125 53.90625 
Q 34.375 57.8125 31.25 60.34375 
Q 28.125 62.890625 24.015625 62.5 
Q 19.921875 62.109375 16.203125 59.375 
Q 12.5 56.640625 10.546875 51.171875 
L 3.125 52.34375 
Q 6.25 61.328125 11.125 65.421875 
Q 16.015625 69.53125 22.65625 69.921875 
Q 26.5625 70.3125 29.6875 69.71875 
Q 32.8125 69.140625 36.125 66.984375 
Q 39.453125 64.84375 41.59375 60.546875 
Q 43.75 56.25 43.15625 50.1875 
Q 42.578125 44.140625 37.109375 35.734375 
Q 31.640625 27.34375 16.015625 9.375 
L 44.140625 9.375 
L 44.140625 2.34375 
L 4.6875 2.34375 
z
" id="SimHei-32"/>
      </defs>
      <g transform="translate(234.68601 318.672)scale(0.16 -0.16)">
       <use xlink:href="#SimHei-32"/>
       <use x="50" xlink:href="#SimHei-30"/>
       <use x="100" xlink:href="#SimHei-30"/>
      </g>
     </g>
    </g>
    <g id="xtick_4">
     <g id="line2d_4">
      <g>
       <use style="stroke:#000000;stroke-width:0.8;" x="320.178833" xlink:href="#mf19c23fe2f" y="300.672"/>
      </g>
     </g>
     <g id="text_4">
      <!-- 300 -->
      <defs>
       <path d="M 3.90625 19.140625 
L 10.9375 20.3125 
Q 12.5 15.234375 16.015625 11.90625 
Q 19.53125 8.59375 24.796875 8.78125 
Q 30.078125 8.984375 33.203125 13.078125 
Q 36.328125 17.1875 35.9375 22.453125 
Q 35.546875 27.734375 31.828125 30.65625 
Q 28.125 33.59375 19.921875 34.765625 
L 19.921875 39.84375 
Q 28.125 40.625 31.828125 44.140625 
Q 35.546875 47.65625 35.15625 53.3125 
Q 34.765625 58.984375 30.078125 61.515625 
Q 25.390625 64.0625 20.109375 62.109375 
Q 14.84375 60.15625 11.71875 51.171875 
L 4.6875 52.34375 
Q 7.03125 59.375 11.125 64.0625 
Q 15.234375 68.75 22.265625 69.53125 
Q 29.296875 70.3125 34.5625 67.765625 
Q 39.84375 65.234375 41.984375 59.953125 
Q 44.140625 54.6875 42.578125 48.4375 
Q 41.015625 42.1875 33.59375 37.5 
Q 39.0625 35.15625 41.984375 30.46875 
Q 44.921875 25.78125 43.9375 18.15625 
Q 42.96875 10.546875 37.109375 5.859375 
Q 31.25 1.171875 23.828125 1.359375 
Q 16.40625 1.5625 10.9375 6.046875 
Q 5.46875 10.546875 3.90625 19.140625 
z
" id="SimHei-33"/>
      </defs>
      <g transform="translate(308.178833 318.672)scale(0.16 -0.16)">
       <use xlink:href="#SimHei-33"/>
       <use x="50" xlink:href="#SimHei-30"/>
       <use x="100" xlink:href="#SimHei-30"/>
      </g>
     </g>
    </g>
    <g id="xtick_5">
     <g id="line2d_5">
      <g>
       <use style="stroke:#000000;stroke-width:0.8;" x="393.671656" xlink:href="#mf19c23fe2f" y="300.672"/>
      </g>
     </g>
     <g id="text_5">
      <!-- 400 -->
      <defs>
       <path d="M 31.25 17.1875 
L 1.171875 17.1875 
L 1.171875 23.828125 
L 32.8125 69.53125 
L 38.671875 69.53125 
L 38.671875 23.828125 
L 48.046875 23.828125 
L 48.046875 17.1875 
L 38.671875 17.1875 
L 38.671875 2.34375 
L 31.25 2.34375 
z
M 31.25 23.828125 
L 31.25 54.6875 
L 9.375 23.828125 
z
" id="SimHei-34"/>
      </defs>
      <g transform="translate(381.671656 318.672)scale(0.16 -0.16)">
       <use xlink:href="#SimHei-34"/>
       <use x="50" xlink:href="#SimHei-30"/>
       <use x="100" xlink:href="#SimHei-30"/>
      </g>
     </g>
    </g>
    <g id="text_6">
     <!-- 汽车行驶步数 -->
     <defs>
      <path d="M 98.4375 4.6875 
Q 94.921875 -7.421875 91.796875 -9.171875 
Q 88.671875 -10.9375 83.984375 -8.203125 
Q 79.296875 -5.46875 75.78125 4.09375 
Q 72.265625 13.671875 72.65625 33.59375 
L 47.65625 33.59375 
Q 41.796875 33.59375 36.71875 33.203125 
L 36.71875 40.234375 
Q 41.796875 39.84375 47.65625 39.84375 
L 80.859375 39.84375 
Q 80.078125 29.6875 80.265625 23.046875 
Q 80.46875 16.40625 82.21875 8.59375 
Q 83.984375 0.78125 86.71875 -1.171875 
Q 89.453125 -3.125 90.625 8.984375 
Q 94.921875 5.46875 98.4375 4.6875 
z
M 53.90625 77.734375 
Q 52.34375 76.171875 49.609375 69.921875 
L 74.21875 69.921875 
Q 83.203125 69.921875 89.84375 70.3125 
L 89.84375 63.28125 
Q 83.203125 63.671875 73.828125 63.671875 
L 47.265625 63.671875 
Q 42.578125 54.6875 37.5 46.09375 
Q 33.59375 48.046875 29.296875 49.21875 
Q 36.328125 57.421875 40.234375 67.1875 
Q 44.140625 76.953125 45.3125 80.859375 
Q 49.609375 78.90625 53.90625 77.734375 
z
M 31.25 23.046875 
Q 28.515625 19.921875 22.453125 9.375 
Q 16.40625 -1.171875 12.5 -7.421875 
Q 8.59375 -3.90625 3.515625 -1.5625 
Q 8.203125 2.34375 14.25 11.125 
Q 20.3125 19.921875 23.828125 28.125 
Q 27.34375 25 31.25 23.046875 
z
M 85.15625 48.046875 
Q 81.25 48.4375 73.4375 48.4375 
L 58.984375 48.4375 
Q 53.125 48.4375 46.875 48.046875 
L 46.875 55.078125 
Q 53.125 54.6875 58.984375 54.6875 
L 73.828125 54.6875 
Q 81.25 54.6875 85.15625 55.078125 
z
M 23.046875 36.71875 
Q 14.84375 42.96875 6.25 46.09375 
Q 8.59375 48.828125 10.15625 52.734375 
Q 19.140625 48.828125 27.734375 43.75 
Q 25.390625 39.84375 23.046875 36.71875 
z
M 16.40625 76.171875 
Q 23.828125 71.484375 31.25 64.453125 
Q 28.125 61.71875 25.78125 58.59375 
Q 19.53125 65.234375 10.9375 70.703125 
Q 14.0625 73.046875 16.40625 76.171875 
z
" id="SimHei-6c7d"/>
      <path d="M 17.578125 30.46875 
Q 15.625 35.9375 14.0625 39.453125 
Q 19.140625 41.40625 24.40625 47.84375 
Q 29.6875 54.296875 33.203125 60.15625 
Q 18.75 60.15625 9.765625 59.765625 
L 9.765625 67.578125 
Q 17.96875 67.1875 37.109375 67.1875 
Q 41.796875 76.5625 43.359375 82.421875 
Q 48.046875 80.078125 52.34375 78.515625 
Q 48.4375 73.046875 45.3125 67.1875 
L 71.875 67.1875 
Q 76.5625 67.1875 86.328125 67.578125 
L 86.328125 59.765625 
Q 78.515625 60.15625 71.875 60.15625 
L 41.796875 60.15625 
Q 37.5 53.515625 26.953125 39.84375 
L 48.828125 39.84375 
Q 48.828125 47.265625 48.4375 55.078125 
L 57.03125 55.078125 
Q 56.640625 48.4375 56.640625 39.84375 
L 69.921875 39.84375 
Q 77.734375 39.84375 85.15625 40.234375 
L 85.15625 32.421875 
Q 77.734375 32.8125 69.921875 32.8125 
L 56.640625 32.8125 
L 56.640625 17.96875 
L 78.515625 17.96875 
Q 85.9375 17.96875 94.921875 18.359375 
L 94.921875 10.15625 
Q 85.9375 10.546875 78.515625 10.546875 
L 56.640625 10.546875 
Q 56.640625 -1.953125 57.03125 -9.375 
L 48.4375 -9.375 
Q 48.828125 -1.5625 48.828125 10.546875 
L 21.875 10.546875 
Q 13.28125 10.546875 5.46875 10.15625 
L 5.46875 18.359375 
Q 13.28125 17.96875 21.875 17.96875 
L 48.828125 17.96875 
L 48.828125 32.8125 
Q 34.765625 32.8125 29.296875 32.421875 
Q 23.828125 32.03125 17.578125 30.46875 
z
" id="SimHei-8f66"/>
      <path d="M 82.8125 48.4375 
Q 90.234375 48.4375 96.484375 48.828125 
L 96.484375 41.015625 
Q 90.234375 41.40625 83.203125 41.40625 
L 77.734375 41.40625 
L 77.734375 -1.171875 
Q 78.125 -5.859375 74.796875 -7.609375 
Q 71.484375 -9.375 61.71875 -10.546875 
Q 60.9375 -5.859375 57.421875 -1.171875 
Q 64.0625 -1.953125 66.796875 -1.75 
Q 69.53125 -1.5625 69.921875 2.34375 
L 69.921875 41.40625 
L 54.296875 41.40625 
Q 46.875 41.40625 40.234375 41.015625 
L 40.234375 48.828125 
Q 47.265625 48.4375 54.296875 48.4375 
z
M 35.9375 53.125 
Q 32.421875 51.171875 30.65625 48.046875 
Q 28.90625 44.921875 25.78125 40.234375 
L 25.78125 5.078125 
Q 25.78125 0 26.171875 -10.546875 
L 17.96875 -10.546875 
Q 18.359375 1.171875 18.359375 7.03125 
L 18.359375 32.03125 
Q 14.84375 26.171875 8.984375 20.3125 
Q 6.25 24.21875 3.90625 26.953125 
Q 12.890625 35.546875 17.96875 43.359375 
Q 23.046875 51.171875 26.953125 58.203125 
Q 30.859375 55.859375 35.9375 53.125 
z
M 76.171875 75 
Q 82.8125 75 89.84375 75.390625 
L 89.84375 67.96875 
Q 82.8125 68.359375 75.390625 68.359375 
L 60.9375 68.359375 
Q 52.34375 68.359375 46.09375 67.96875 
L 46.09375 75.390625 
Q 52.34375 75 60.9375 75 
z
M 32.421875 76.953125 
Q 29.296875 76.5625 24.21875 68.546875 
Q 19.140625 60.546875 10.15625 50.78125 
Q 7.8125 53.90625 5.078125 56.640625 
Q 11.328125 62.890625 16.40625 70.109375 
Q 21.484375 77.34375 23.828125 82.8125 
Q 27.734375 80.46875 32.421875 76.953125 
z
" id="SimHei-884c"/>
      <path d="M 66.796875 65.625 
Q 66.40625 74.21875 66.015625 81.25 
Q 70.3125 80.46875 74.21875 80.078125 
Q 73.4375 75 73.4375 65.625 
L 92.96875 65.625 
Q 92.1875 58.984375 92.1875 50 
Q 92.1875 41.015625 92.96875 35.15625 
L 73.4375 35.15625 
Q 73.046875 28.90625 72.453125 23.234375 
Q 71.875 17.578125 68.75 8.984375 
Q 73.828125 5.46875 81.25 2.921875 
Q 88.671875 0.390625 96.875 0 
Q 93.359375 -3.90625 91.796875 -8.203125 
Q 84.375 -6.25 77.734375 -3.515625 
Q 71.09375 -0.78125 65.234375 3.515625 
Q 62.109375 -0.390625 58 -3.515625 
Q 53.90625 -6.640625 48.4375 -10.15625 
Q 46.09375 -7.03125 41.015625 -4.296875 
Q 47.65625 -1.953125 51.75 0.78125 
Q 55.859375 3.515625 59.765625 7.8125 
Q 55.078125 12.109375 52.921875 16.40625 
Q 50.78125 20.703125 48.4375 25.78125 
Q 52.34375 26.953125 55.46875 28.515625 
Q 56.640625 24.21875 58.78125 20.3125 
Q 60.9375 16.40625 63.671875 13.671875 
Q 65.234375 19.140625 65.8125 24.015625 
Q 66.40625 28.90625 66.40625 35.15625 
L 48.4375 35.15625 
Q 48.828125 41.015625 48.828125 50 
Q 48.828125 59.375 48.4375 65.625 
L 66.796875 65.625 
z
M 38.28125 75.390625 
Q 37.5 69.921875 37.109375 65.234375 
L 35.15625 37.109375 
L 43.75 37.109375 
Q 42.578125 32.03125 41.203125 17.375 
Q 39.84375 2.734375 38.859375 -1.171875 
Q 37.890625 -5.078125 33.390625 -6.25 
Q 28.90625 -7.421875 21.484375 -8.203125 
Q 21.09375 -3.90625 19.140625 0.390625 
Q 27.34375 0 29.875 0.578125 
Q 32.421875 1.171875 32.8125 5.859375 
L 35.15625 31.25 
L 10.15625 31.25 
Q 10.9375 38.28125 11.328125 46.484375 
Q 11.71875 54.6875 12.109375 62.109375 
L 19.921875 61.71875 
Q 19.140625 58.203125 17.96875 37.109375 
L 28.125 37.109375 
L 30.46875 69.53125 
L 17.1875 69.53125 
Q 11.71875 69.53125 5.46875 69.140625 
L 5.46875 75.78125 
Q 11.71875 75.390625 17.1875 75.390625 
z
M 85.15625 41.015625 
L 85.15625 59.765625 
L 73.4375 59.765625 
L 73.4375 41.015625 
z
M 66.796875 41.015625 
L 66.796875 59.765625 
L 55.859375 59.765625 
L 55.859375 41.015625 
z
M 28.515625 14.84375 
Q 24.21875 14.0625 16.59375 12.890625 
Q 8.984375 11.71875 6.25 10.9375 
Q 5.078125 14.84375 3.125 18.75 
Q 6.640625 18.75 13.859375 19.328125 
Q 21.09375 19.921875 29.296875 21.09375 
z
" id="SimHei-9a76"/>
      <path d="M 75 66.40625 
Q 80.46875 66.40625 86.71875 66.796875 
L 86.71875 59.765625 
Q 80.46875 60.15625 75 60.15625 
L 57.8125 60.15625 
L 57.8125 46.875 
L 80.078125 46.875 
Q 88.671875 46.875 95.3125 47.265625 
L 95.3125 39.84375 
Q 88.671875 40.234375 80.078125 40.234375 
L 23.046875 40.234375 
Q 16.40625 40.234375 7.421875 39.453125 
L 7.421875 47.265625 
Q 16.40625 46.875 23.046875 46.875 
L 26.953125 46.875 
L 26.953125 58.984375 
Q 26.953125 66.015625 26.5625 70.3125 
L 34.765625 70.3125 
Q 34.375 65.234375 34.375 58.984375 
L 34.375 46.875 
L 50.390625 46.875 
Q 50.390625 74.21875 50 79.6875 
L 58.203125 79.6875 
Q 57.8125 74.21875 57.8125 66.40625 
z
M 58.203125 37.5 
Q 57.8125 30.859375 57.8125 25 
L 57.8125 7.03125 
Q 66.40625 11.71875 73.828125 19.140625 
Q 81.25 26.5625 84.375 32.03125 
Q 88.28125 28.515625 92.1875 26.5625 
Q 88.671875 23.046875 83.78125 17.96875 
Q 78.90625 12.890625 70.890625 6.828125 
Q 62.890625 0.78125 50.1875 -3.515625 
Q 37.5 -7.8125 12.5 -10.15625 
Q 11.328125 -6.25 7.8125 -2.34375 
Q 19.921875 -2.34375 32.8125 -0.390625 
Q 45.703125 1.5625 50.390625 4.296875 
L 50.390625 25 
Q 50.390625 30.859375 50 37.5 
L 58.203125 37.5 
z
M 40.625 29.296875 
Q 35.546875 25 30.859375 19.921875 
Q 26.171875 14.84375 16.796875 6.25 
Q 13.671875 9.375 10.9375 11.328125 
Q 18.359375 16.796875 24.40625 23.625 
Q 30.46875 30.46875 33.203125 34.375 
Q 36.328125 31.640625 40.625 29.296875 
z
" id="SimHei-6b65"/>
      <path d="M 70.703125 76.953125 
Q 69.921875 75 68.75 71.671875 
Q 67.578125 68.359375 65.234375 59.765625 
L 83.203125 59.765625 
Q 87.109375 59.765625 92.578125 60.15625 
L 92.578125 53.125 
Q 88.28125 53.515625 85.9375 53.515625 
Q 85.9375 47.265625 83.78125 33.78125 
Q 81.640625 20.3125 76.171875 10.546875 
Q 80.078125 5.859375 84.953125 2.140625 
Q 89.84375 -1.5625 94.140625 -3.125 
Q 89.453125 -6.640625 87.890625 -9.765625 
Q 83.203125 -7.03125 79.296875 -3.515625 
Q 75.390625 0 71.484375 5.078125 
Q 67.1875 0.390625 62.296875 -2.921875 
Q 57.421875 -6.25 50 -10.15625 
Q 48.046875 -6.640625 44.53125 -4.6875 
Q 50.390625 -2.34375 57.03125 1.953125 
Q 63.671875 6.25 67.1875 10.546875 
Q 64.453125 16.015625 61.90625 22.265625 
Q 59.375 28.515625 57.421875 38.671875 
Q 56.25 35.546875 53.515625 30.46875 
Q 50.78125 32.03125 46.875 33.59375 
Q 53.125 44.53125 57.03125 57.421875 
Q 60.9375 70.3125 62.109375 79.6875 
Q 66.796875 77.734375 70.703125 76.953125 
z
M 32.8125 35.15625 
Q 31.25 33.59375 29.296875 30.078125 
L 50.78125 30.078125 
Q 48.4375 20.3125 42.578125 10.546875 
Q 48.828125 8.203125 52.34375 6.25 
Q 50.390625 3.515625 48.828125 0.390625 
Q 45.3125 2.734375 38.28125 5.078125 
Q 30.46875 -3.515625 11.328125 -10.15625 
Q 9.375 -5.859375 6.25 -4.296875 
Q 24.609375 0 31.25 7.421875 
Q 20.3125 10.15625 13.28125 12.109375 
Q 15.625 15.625 19.53125 23.828125 
Q 15.625 23.828125 6.640625 23.4375 
L 6.640625 30.46875 
Q 14.0625 30.078125 21.875 30.078125 
Q 23.4375 33.59375 24.21875 37.890625 
Q 28.515625 36.328125 32.8125 35.15625 
z
M 27.734375 61.71875 
Q 27.734375 71.09375 27.34375 79.6875 
L 35.15625 79.6875 
Q 34.765625 71.484375 34.765625 61.71875 
Q 48.046875 61.71875 53.515625 62.109375 
L 53.515625 55.078125 
Q 48.046875 55.46875 34.765625 55.46875 
Q 34.765625 44.140625 35.15625 37.890625 
L 27.34375 37.890625 
Q 27.734375 43.359375 27.734375 51.5625 
Q 25.78125 48.4375 20.3125 43.546875 
Q 14.84375 38.671875 10.15625 35.9375 
Q 8.203125 39.453125 4.296875 41.015625 
Q 7.8125 42.1875 13.671875 46.484375 
Q 19.53125 50.78125 22.65625 55.46875 
Q 14.84375 55.46875 7.8125 55.078125 
L 7.8125 62.109375 
Q 14.453125 61.71875 27.734375 61.71875 
z
M 62.109375 49.609375 
Q 65.625 26.5625 71.875 17.578125 
Q 75.78125 26.5625 77.140625 35.734375 
Q 78.515625 44.921875 78.90625 53.515625 
L 63.671875 53.515625 
L 62.109375 49.609375 
z
M 22.65625 15.625 
Q 27.34375 14.453125 35.546875 12.5 
Q 38.671875 16.40625 41.40625 23.828125 
L 26.953125 23.828125 
Q 25 19.921875 22.65625 15.625 
z
M 51.953125 75.390625 
Q 50 72.265625 48.828125 69.53125 
Q 47.65625 66.796875 45.703125 62.890625 
Q 42.578125 64.453125 39.453125 65.234375 
Q 42.578125 70.3125 45.3125 78.125 
Q 49.21875 76.171875 51.953125 75.390625 
z
M 40.234375 52.734375 
Q 45.3125 47.65625 50 42.578125 
Q 47.65625 40.625 44.921875 37.890625 
Q 39.453125 44.53125 35.9375 48.4375 
Q 38.28125 50.390625 40.234375 52.734375 
z
M 14.453125 78.125 
Q 19.921875 72.65625 23.4375 67.1875 
L 17.578125 63.671875 
Q 14.84375 69.140625 9.375 73.828125 
Q 12.890625 76.171875 14.453125 78.125 
z
" id="SimHei-6570"/>
     </defs>
     <g transform="translate(219.264 337.672)scale(0.16 -0.16)">
      <use xlink:href="#SimHei-6c7d"/>
      <use x="100" xlink:href="#SimHei-8f66"/>
      <use x="200" xlink:href="#SimHei-884c"/>
      <use x="300" xlink:href="#SimHei-9a76"/>
      <use x="400" xlink:href="#SimHei-6b65"/>
      <use x="500" xlink:href="#SimHei-6570"/>
     </g>
    </g>
   </g>
   <g id="matplotlib.axis_2">
    <g id="ytick_1">
     <g id="line2d_6">
      <defs>
       <path d="M 0 0 
L -3.5 0 
" id="med87295ba3" style="stroke:#000000;stroke-width:0.8;"/>
      </defs>
      <g>
       <use style="stroke:#000000;stroke-width:0.8;" x="82.944" xlink:href="#med87295ba3" y="277.1392"/>
      </g>
     </g>
     <g id="text_7">
      <!-- 0 -->
      <g transform="translate(67.944 282.6392)scale(0.16 -0.16)">
       <use xlink:href="#SimHei-30"/>
      </g>
     </g>
    </g>
    <g id="ytick_2">
     <g id="line2d_7">
      <g>
       <use style="stroke:#000000;stroke-width:0.8;" x="82.944" xlink:href="#med87295ba3" y="236.498841"/>
      </g>
     </g>
     <g id="text_8">
      <!-- 5000 -->
      <defs>
       <path d="M 8.59375 20.703125 
Q 11.328125 10.15625 17.96875 8.984375 
Q 24.609375 7.8125 28.703125 10.34375 
Q 32.8125 12.890625 34.5625 16.984375 
Q 36.328125 21.09375 36.125 26.171875 
Q 35.9375 31.25 33.390625 34.765625 
Q 30.859375 38.28125 26.953125 39.453125 
Q 23.046875 40.625 18.15625 39.453125 
Q 13.28125 38.28125 10.15625 33.984375 
L 3.515625 34.765625 
Q 4.296875 37.109375 10.9375 68.359375 
L 41.796875 68.359375 
L 41.796875 61.328125 
L 16.796875 61.328125 
Q 14.84375 50.78125 12.890625 44.53125 
Q 18.75 47.265625 23.828125 47.0625 
Q 28.90625 46.875 33.59375 44.71875 
Q 38.28125 42.578125 40.421875 38.859375 
Q 42.578125 35.15625 43.546875 31.4375 
Q 44.53125 27.734375 44.328125 23.4375 
Q 44.140625 19.140625 42.578125 14.640625 
Q 41.015625 10.15625 37.890625 7.21875 
Q 34.765625 4.296875 30.265625 2.53125 
Q 25.78125 0.78125 19.921875 1.171875 
Q 14.0625 1.5625 8.78125 5.46875 
Q 3.515625 9.375 1.5625 18.75 
z
" id="SimHei-35"/>
      </defs>
      <g transform="translate(43.944 241.998841)scale(0.16 -0.16)">
       <use xlink:href="#SimHei-35"/>
       <use x="50" xlink:href="#SimHei-30"/>
       <use x="100" xlink:href="#SimHei-30"/>
       <use x="150" xlink:href="#SimHei-30"/>
      </g>
     </g>
    </g>
    <g id="ytick_3">
     <g id="line2d_8">
      <g>
       <use style="stroke:#000000;stroke-width:0.8;" x="82.944" xlink:href="#med87295ba3" y="195.858483"/>
      </g>
     </g>
     <g id="text_9">
      <!-- 10000 -->
      <g transform="translate(35.944 201.358483)scale(0.16 -0.16)">
       <use xlink:href="#SimHei-31"/>
       <use x="50" xlink:href="#SimHei-30"/>
       <use x="100" xlink:href="#SimHei-30"/>
       <use x="150" xlink:href="#SimHei-30"/>
       <use x="200" xlink:href="#SimHei-30"/>
      </g>
     </g>
    </g>
    <g id="ytick_4">
     <g id="line2d_9">
      <g>
       <use style="stroke:#000000;stroke-width:0.8;" x="82.944" xlink:href="#med87295ba3" y="155.218124"/>
      </g>
     </g>
     <g id="text_10">
      <!-- 15000 -->
      <g transform="translate(35.944 160.718124)scale(0.16 -0.16)">
       <use xlink:href="#SimHei-31"/>
       <use x="50" xlink:href="#SimHei-35"/>
       <use x="100" xlink:href="#SimHei-30"/>
       <use x="150" xlink:href="#SimHei-30"/>
       <use x="200" xlink:href="#SimHei-30"/>
      </g>
     </g>
    </g>
    <g id="ytick_5">
     <g id="line2d_10">
      <g>
       <use style="stroke:#000000;stroke-width:0.8;" x="82.944" xlink:href="#med87295ba3" y="114.577765"/>
      </g>
     </g>
     <g id="text_11">
      <!-- 20000 -->
      <g transform="translate(35.944 120.077765)scale(0.16 -0.16)">
       <use xlink:href="#SimHei-32"/>
       <use x="50" xlink:href="#SimHei-30"/>
       <use x="100" xlink:href="#SimHei-30"/>
       <use x="150" xlink:href="#SimHei-30"/>
       <use x="200" xlink:href="#SimHei-30"/>
      </g>
     </g>
    </g>
    <g id="ytick_6">
     <g id="line2d_11">
      <g>
       <use style="stroke:#000000;stroke-width:0.8;" x="82.944" xlink:href="#med87295ba3" y="73.937407"/>
      </g>
     </g>
     <g id="text_12">
      <!-- 25000 -->
      <g transform="translate(35.944 79.437407)scale(0.16 -0.16)">
       <use xlink:href="#SimHei-32"/>
       <use x="50" xlink:href="#SimHei-35"/>
       <use x="100" xlink:href="#SimHei-30"/>
       <use x="150" xlink:href="#SimHei-30"/>
       <use x="200" xlink:href="#SimHei-30"/>
      </g>
     </g>
    </g>
    <g id="ytick_7">
     <g id="line2d_12">
      <g>
       <use style="stroke:#000000;stroke-width:0.8;" x="82.944" xlink:href="#med87295ba3" y="33.297048"/>
      </g>
     </g>
     <g id="text_13">
      <!-- 30000 -->
      <g transform="translate(35.944 38.797048)scale(0.16 -0.16)">
       <use xlink:href="#SimHei-33"/>
       <use x="50" xlink:href="#SimHei-30"/>
       <use x="100" xlink:href="#SimHei-30"/>
       <use x="150" xlink:href="#SimHei-30"/>
       <use x="200" xlink:href="#SimHei-30"/>
      </g>
     </g>
    </g>
    <g id="text_14">
     <!-- 累积回报 -->
     <defs>
      <path d="M 85.546875 78.125 
Q 85.15625 71.875 85.15625 62.109375 
Q 85.15625 52.34375 85.546875 46.09375 
L 73.046875 46.09375 
Q 75.78125 43.359375 79.296875 40.625 
Q 75 39.453125 66.203125 35.546875 
Q 57.421875 31.640625 50.96875 28.703125 
Q 44.53125 25.78125 37.5 22.265625 
Q 60.15625 23.828125 72.65625 24.609375 
Q 69.140625 26.953125 65.625 28.90625 
Q 68.359375 31.25 70.3125 33.984375 
Q 80.078125 28.125 92.1875 20.3125 
Q 89.84375 17.578125 87.109375 14.0625 
Q 83.984375 16.796875 79.6875 19.53125 
Q 66.40625 18.359375 54.296875 17.578125 
L 54.296875 0.78125 
Q 54.296875 -5.46875 50.1875 -7.21875 
Q 46.09375 -8.984375 40.625 -9.375 
Q 40.234375 -5.859375 37.109375 -0.78125 
Q 43.75 -1.171875 45.3125 -0.390625 
Q 46.875 0.390625 46.875 1.953125 
L 46.875 16.796875 
Q 37.5 16.40625 31.046875 15.8125 
Q 24.609375 15.234375 13.28125 13.671875 
Q 12.109375 17.578125 10.9375 21.09375 
Q 17.96875 21.875 24.609375 23.625 
Q 31.25 25.390625 47.265625 33.203125 
Q 27.734375 31.640625 19.53125 30.078125 
Q 18.75 34.375 17.1875 37.109375 
Q 20.703125 37.109375 27.140625 39.640625 
Q 33.59375 42.1875 38.671875 46.09375 
L 14.84375 46.09375 
Q 15.234375 52.734375 15.234375 62.109375 
Q 15.234375 71.875 14.84375 78.125 
L 85.546875 78.125 
z
M 37.890625 8.203125 
Q 34.375 6.25 27.53125 2.140625 
Q 20.703125 -1.953125 13.28125 -6.640625 
Q 10.9375 -3.515625 7.8125 -0.390625 
Q 13.28125 1.953125 19.53125 5.65625 
Q 25.78125 9.375 31.640625 14.0625 
Q 33.59375 11.328125 37.890625 8.203125 
z
M 46.484375 64.0625 
L 46.484375 72.65625 
L 22.65625 72.65625 
L 22.65625 64.0625 
z
M 77.734375 64.0625 
L 77.734375 72.65625 
L 53.90625 72.65625 
L 53.90625 64.0625 
z
M 66.796875 13.28125 
Q 74.21875 10.15625 78.90625 7.8125 
L 91.40625 1.5625 
Q 88.671875 -1.953125 87.109375 -5.859375 
Q 80.46875 -1.5625 74.609375 1.5625 
Q 68.75 4.6875 63.28125 7.03125 
Q 65.625 10.546875 66.796875 13.28125 
z
M 46.484375 51.171875 
L 46.484375 58.59375 
L 22.65625 58.59375 
L 22.65625 51.171875 
z
M 77.734375 51.171875 
L 77.734375 58.59375 
L 53.90625 58.59375 
L 53.90625 51.171875 
z
M 57.8125 38.671875 
Q 65.625 42.1875 71.484375 46.09375 
L 50.390625 46.09375 
Q 45.3125 42.96875 35.9375 37.890625 
Q 48.046875 38.28125 57.8125 38.671875 
z
" id="SimHei-7d2f"/>
      <path d="M 88.671875 73.4375 
Q 88.28125 66.796875 88.28125 55.859375 
L 88.28125 42.96875 
Q 88.28125 34.765625 88.671875 27.34375 
L 48.4375 27.34375 
Q 48.828125 34.765625 48.828125 42.96875 
L 48.828125 56.25 
Q 48.828125 66.796875 48.4375 73.4375 
L 88.671875 73.4375 
z
M 44.53125 72.265625 
Q 40.625 71.484375 37.5 70.703125 
Q 34.375 69.921875 30.078125 69.140625 
L 30.078125 51.171875 
Q 39.453125 51.171875 44.921875 51.5625 
L 44.921875 44.140625 
Q 39.453125 44.53125 30.078125 44.53125 
L 30.078125 32.421875 
Q 33.203125 34.765625 35.15625 36.71875 
Q 41.40625 27.734375 44.921875 22.65625 
Q 42.96875 21.484375 38.28125 17.96875 
Q 35.15625 24.609375 30.078125 31.25 
L 30.078125 4.6875 
Q 30.078125 -1.171875 30.46875 -10.546875 
L 22.265625 -10.546875 
Q 23.046875 -1.171875 23.046875 4.6875 
L 23.046875 30.078125 
Q 19.921875 23.046875 17.578125 19.140625 
Q 15.234375 15.234375 10.15625 8.203125 
Q 7.03125 10.9375 3.125 12.890625 
Q 8.984375 18.75 14.0625 27.34375 
Q 19.140625 35.9375 21.484375 44.53125 
Q 16.015625 44.53125 4.6875 44.140625 
L 4.6875 51.5625 
Q 16.015625 51.171875 23.046875 51.171875 
L 23.046875 67.578125 
Q 15.234375 66.40625 8.203125 65.234375 
Q 7.03125 68.75 5.46875 72.265625 
Q 10.546875 71.875 22.84375 74.21875 
Q 35.15625 76.5625 39.84375 79.296875 
Q 42.578125 74.609375 44.53125 72.265625 
z
M 80.859375 33.984375 
L 80.859375 67.1875 
L 55.859375 67.1875 
L 55.859375 33.984375 
z
M 62.890625 16.796875 
Q 60.546875 13.28125 54.875 5.46875 
Q 49.21875 -2.34375 42.1875 -10.15625 
Q 39.453125 -7.421875 35.9375 -4.6875 
Q 41.015625 -0.78125 46.09375 5.859375 
Q 51.171875 12.5 55.859375 21.875 
Q 59.765625 18.75 62.890625 16.796875 
z
M 78.90625 20.703125 
Q 82.421875 16.015625 87.296875 9.765625 
Q 92.1875 3.515625 96.875 -3.515625 
Q 92.1875 -6.25 89.453125 -8.59375 
Q 86.71875 -3.515625 81.25 4.484375 
Q 75.78125 12.5 72.65625 16.015625 
Q 75.78125 17.96875 78.90625 20.703125 
z
" id="SimHei-79ef"/>
      <path d="M 88.28125 75.78125 
Q 87.890625 64.453125 87.890625 53.90625 
L 87.890625 14.84375 
Q 87.890625 4.6875 88.28125 -5.859375 
L 80.46875 -5.859375 
L 80.46875 1.5625 
L 18.359375 1.5625 
L 18.359375 -5.859375 
L 10.9375 -5.859375 
Q 11.328125 3.90625 11.328125 14.84375 
L 11.328125 53.90625 
Q 11.328125 64.0625 10.9375 75.78125 
L 88.28125 75.78125 
z
M 80.46875 7.8125 
L 80.46875 69.140625 
L 18.75 69.140625 
L 18.75 7.8125 
z
M 67.578125 54.6875 
Q 67.1875 48.828125 67.1875 42.96875 
L 67.1875 33.984375 
Q 67.1875 28.90625 67.578125 21.875 
L 31.640625 21.875 
Q 32.03125 28.90625 32.03125 33.984375 
L 32.03125 43.75 
Q 32.03125 49.21875 31.640625 54.6875 
L 67.578125 54.6875 
z
M 59.765625 28.515625 
L 59.765625 48.4375 
L 39.0625 48.4375 
L 39.0625 28.515625 
z
" id="SimHei-56de"/>
      <path d="M 52.734375 -8.59375 
L 45.3125 -8.59375 
Q 45.703125 0.78125 45.703125 10.9375 
L 45.703125 57.421875 
Q 45.703125 67.96875 45.3125 76.5625 
L 86.328125 76.5625 
Q 86.328125 65.234375 85.15625 55.46875 
Q 83.984375 50.78125 81.046875 49.015625 
Q 78.125 47.265625 66.796875 46.484375 
Q 66.015625 51.171875 64.453125 54.296875 
Q 75.390625 53.90625 76.953125 55.859375 
Q 78.515625 57.8125 78.515625 69.921875 
L 52.734375 69.921875 
L 52.734375 43.359375 
L 89.453125 43.359375 
Q 89.0625 40.234375 85.9375 30.265625 
Q 82.8125 20.3125 77.34375 11.328125 
Q 85.546875 2.734375 96.875 -2.734375 
Q 94.140625 -5.46875 90.625 -9.375 
Q 77.34375 -0.390625 73.046875 5.46875 
Q 67.96875 -1.5625 57.8125 -9.375 
Q 56.640625 -6.25 53.125 -3.125 
Q 61.71875 1.953125 67.578125 10.15625 
Q 58.984375 23.828125 55.859375 37.109375 
L 52.734375 36.71875 
z
M 22.265625 59.375 
Q 22.265625 73.4375 21.875 81.640625 
L 29.6875 81.640625 
Q 29.296875 74.21875 29.296875 59.375 
Q 35.546875 59.375 42.1875 59.765625 
L 42.1875 52.34375 
Q 33.59375 52.734375 29.296875 52.734375 
L 29.296875 36.71875 
Q 35.546875 38.671875 41.796875 41.015625 
Q 41.40625 37.890625 41.796875 33.984375 
Q 35.9375 32.421875 29.296875 30.078125 
L 29.296875 2.734375 
Q 29.296875 -3.90625 25.96875 -6.046875 
Q 22.65625 -8.203125 14.0625 -9.375 
Q 12.890625 -4.6875 10.15625 -1.5625 
Q 17.1875 -1.5625 19.71875 -0.578125 
Q 22.265625 0.390625 22.265625 3.90625 
L 22.265625 27.734375 
Q 9.375 23.4375 7.03125 21.875 
Q 5.078125 26.953125 3.125 30.46875 
Q 10.15625 31.640625 22.265625 35.15625 
L 22.265625 52.734375 
Q 12.890625 52.734375 5.859375 52.34375 
L 5.859375 59.765625 
Q 11.71875 59.375 22.265625 59.375 
z
M 62.890625 36.71875 
Q 66.796875 23.828125 72.265625 17.1875 
Q 77.34375 25 79.6875 36.71875 
L 62.890625 36.71875 
z
" id="SimHei-62a5"/>
     </defs>
     <g transform="translate(29.944 185.792)rotate(-90)scale(0.16 -0.16)">
      <use xlink:href="#SimHei-7d2f"/>
      <use x="100" xlink:href="#SimHei-79ef"/>
      <use x="200" xlink:href="#SimHei-56de"/>
      <use x="300" xlink:href="#SimHei-62a5"/>
     </g>
    </g>
   </g>
   <g id="line2d_13">
    <path clip-path="url(#p4ebb65d11c)" d="M 99.700364 277.141056 
L 103.375005 276.998346 
L 105.579789 276.738087 
L 107.784574 276.227107 
L 109.989359 275.357613 
L 112.194144 274.246381 
L 115.868785 271.662918 
L 117.338641 270.473998 
L 118.808498 269.034094 
L 122.483139 264.931819 
L 129.097493 256.757529 
L 129.832421 255.976737 
L 130.567349 255.377218 
L 131.302278 254.944015 
L 132.772134 254.423448 
L 134.24199 254.1549 
L 136.446775 253.842917 
L 137.181703 253.576463 
L 140.121416 251.047665 
L 142.326201 248.978508 
L 144.530986 246.601683 
L 147.470699 242.996608 
L 149.675483 240.391723 
L 151.14534 238.80016 
L 151.880268 238.042196 
L 153.350124 236.262217 
L 154.819981 235.107679 
L 156.289837 234.258163 
L 157.759694 233.841011 
L 161.434335 233.191902 
L 162.169263 232.930631 
L 163.63912 231.889118 
L 166.578833 229.338969 
L 168.048689 228.060718 
L 169.518545 227.246269 
L 170.988402 226.641546 
L 172.458258 226.306964 
L 179.072612 225.349121 
L 181.277397 224.022296 
L 182.747254 223.146368 
L 184.21711 222.413121 
L 185.686967 221.931899 
L 188.626679 221.558709 
L 189.361608 221.473879 
L 191.566392 220.812309 
L 193.771177 220.242357 
L 195.241033 219.869808 
L 198.915675 219.446943 
L 200.385531 218.891979 
L 201.855388 218.311733 
L 205.530029 217.21271 
L 206.264957 216.755771 
L 208.469742 214.69262 
L 212.144383 210.81471 
L 215.819024 206.25228 
L 218.023809 203.62667 
L 219.493665 202.513774 
L 220.963522 201.861228 
L 222.433378 201.553471 
L 226.108019 200.983489 
L 226.842947 200.72832 
L 227.577876 200.266453 
L 229.047732 200.008705 
L 229.78266 199.625361 
L 232.722373 197.172151 
L 234.19223 195.75399 
L 236.397014 193.339001 
L 240.071656 188.835351 
L 243.746297 183.849012 
L 245.951081 180.659987 
L 252.565435 170.419028 
L 256.240077 164.374844 
L 259.914718 157.984526 
L 261.384574 155.88028 
L 265.059215 150.529156 
L 265.794144 149.454759 
L 268.733856 144.438926 
L 274.613282 135.478463 
L 275.348211 134.559122 
L 276.818067 133.367232 
L 278.287923 132.724088 
L 279.75778 132.457466 
L 283.432421 132.11003 
L 284.167349 131.780948 
L 285.637206 130.814447 
L 293.721416 124.72827 
L 297.396057 122.379982 
L 298.865914 121.064039 
L 300.33577 119.501185 
L 301.805627 118.142797 
L 304.010411 116.711468 
L 307.685053 114.521371 
L 309.154909 113.921783 
L 310.624766 113.634971 
L 313.564478 113.215622 
L 314.299407 113.069131 
L 315.034335 112.745825 
L 316.504191 111.772532 
L 319.443904 109.510724 
L 322.383617 107.067963 
L 324.588402 104.960929 
L 326.058258 103.37607 
L 331.202756 97.305875 
L 333.407541 94.416229 
L 334.877397 92.690954 
L 336.347254 91.367084 
L 337.81711 90.552632 
L 340.756823 89.554626 
L 345.166392 88.242499 
L 346.636249 87.998988 
L 350.31089 87.533497 
L 351.780746 87.243707 
L 354.720459 86.825948 
L 355.455388 86.621473 
L 356.190316 86.2603 
L 358.3951 84.554265 
L 360.599885 82.58975 
L 363.539598 80.003204 
L 366.479311 77.709291 
L 370.88888 74.464344 
L 376.033378 68.945923 
L 376.768306 68.267788 
L 378.973091 65.760005 
L 381.177876 63.54748 
L 382.647732 61.872887 
L 385.587445 58.95369 
L 387.057301 57.915212 
L 388.527158 57.23182 
L 389.997014 56.913572 
L 395.87644 56.292972 
L 398.081225 56.034205 
L 398.816153 55.823443 
L 400.28601 54.985678 
L 402.490794 53.38381 
L 405.430507 51.133386 
L 406.900364 50.302224 
L 409.105148 49.218398 
L 412.044861 47.518664 
L 414.984574 45.498207 
L 417.189359 43.897743 
L 417.924287 43.212882 
L 418.659215 42.288811 
L 419.394144 41.601071 
L 423.068785 36.923922 
L 427.478354 30.760587 
L 431.152995 25.598393 
L 434.827636 20.264727 
L 434.827636 20.264727 
" style="fill:none;stroke:#ff0000;stroke-linecap:square;stroke-width:3;"/>
   </g>
   <g id="line2d_14">
    <path clip-path="url(#p4ebb65d11c)" d="M 99.700364 277.141598 
L 102.640077 276.986536 
L 104.844861 276.668352 
L 107.049646 276.122071 
L 109.989359 274.348383 
L 112.194144 272.658021 
L 114.398928 270.719786 
L 116.603713 268.436245 
L 120.278354 264.130234 
L 122.483139 261.290588 
L 124.687923 258.319313 
L 126.15778 257.592718 
L 126.892708 257.449288 
L 128.362565 256.891147 
L 130.567349 255.799809 
L 134.976919 254.945759 
L 137.181703 254.040879 
L 138.65156 253.068749 
L 140.121416 251.776482 
L 142.326201 249.299805 
L 146.000842 245.170672 
L 148.205627 243.323222 
L 150.410411 241.826741 
L 151.14534 241.203206 
L 151.880268 240.727553 
L 155.554909 239.229035 
L 159.964478 238.3079 
L 161.434335 237.501047 
L 163.63912 235.96655 
L 168.048689 232.828978 
L 169.518545 232.261784 
L 170.988402 231.945507 
L 174.663043 231.523132 
L 176.867828 231.289196 
L 177.602756 231.065042 
L 179.072612 230.27004 
L 180.542469 229.346096 
L 182.012325 228.513235 
L 183.482182 227.943474 
L 184.952038 227.701637 
L 187.156823 227.427503 
L 188.626679 227.059264 
L 190.096536 226.550829 
L 193.036249 226.085056 
L 198.180746 225.493498 
L 199.650603 224.904206 
L 201.120459 224.33984 
L 202.590316 223.902827 
L 204.060172 223.247814 
L 209.20467 219.543709 
L 210.674526 218.173568 
L 216.553952 212.132193 
L 219.493665 210.081383 
L 220.963522 209.668272 
L 226.108019 208.984559 
L 226.842947 208.758726 
L 229.047732 206.859272 
L 232.722373 203.062609 
L 237.866871 196.723517 
L 240.806584 192.651306 
L 249.625722 179.225193 
L 255.505148 169.841567 
L 257.709933 166.14398 
L 262.119502 159.014015 
L 264.324287 155.215364 
L 265.794144 153.208796 
L 267.264 151.532756 
L 269.468785 149.148771 
L 273.878354 144.424956 
L 275.348211 143.217166 
L 276.818067 142.184886 
L 277.552995 141.832095 
L 279.022852 141.51479 
L 281.227636 141.476815 
L 434.827636 141.476815 
L 434.827636 141.476815 
" style="fill:none;stroke:#0000ff;stroke-dasharray:7.4,3.2;stroke-dashoffset:0;stroke-width:2;"/>
   </g>
   <g id="line2d_15">
    <path clip-path="url(#p4ebb65d11c)" d="M 99.700364 277.141931 
L 103.375005 276.976143 
L 106.314718 276.752493 
L 109.989359 275.83806 
L 111.459215 275.225579 
L 112.929072 274.360701 
L 114.398928 273.218486 
L 118.073569 269.66369 
L 121.013282 266.631146 
L 122.483139 264.814395 
L 125.422852 261.042158 
L 127.627636 258.562858 
L 128.362565 257.924562 
L 129.832421 257.113103 
L 131.302278 256.634223 
L 135.711847 255.679097 
L 142.326201 250.56358 
L 144.530986 248.639481 
L 146.000842 247.038598 
L 148.940555 243.883895 
L 149.675483 243.266838 
L 151.14534 241.321305 
L 151.880268 240.518653 
L 152.615196 239.951666 
L 154.085053 239.221114 
L 155.554909 238.881187 
L 159.22955 238.465563 
L 161.434335 237.572119 
L 162.904191 237.055289 
L 164.374048 236.2382 
L 168.783617 233.608464 
L 170.253474 233.10406 
L 172.458258 232.647894 
L 176.1329 232.094915 
L 177.602756 231.889707 
L 179.807541 230.669534 
L 181.277397 229.558346 
L 183.482182 228.38808 
L 184.952038 227.855536 
L 187.156823 227.54449 
L 187.891751 227.469799 
L 189.361608 226.929765 
L 191.566392 226.424681 
L 198.180746 225.15963 
L 200.385531 224.266015 
L 202.590316 223.49661 
L 206.264957 222.483291 
L 206.999885 222.222825 
L 208.469742 221.011166 
L 212.144383 218.441007 
L 214.349167 216.309591 
L 218.758737 211.170748 
L 219.493665 210.542253 
L 220.963522 209.678632 
L 222.433378 209.173534 
L 226.842947 208.151232 
L 227.577876 207.825282 
L 229.047732 207.649524 
L 229.78266 207.32093 
L 231.987445 205.695422 
L 234.927158 204.051136 
L 237.866871 202.241873 
L 239.336727 201.107218 
L 241.541512 198.92086 
L 251.095579 188.5898 
L 252.565435 186.697062 
L 256.240077 180.910325 
L 257.709933 178.397651 
L 261.384574 172.843918 
L 262.854431 171.091612 
L 265.059215 168.683005 
L 266.529072 166.476479 
L 267.998928 163.678638 
L 270.203713 160.471381 
L 273.878354 154.254011 
L 274.613282 153.44653 
L 275.348211 152.916772 
L 276.818067 152.243933 
L 278.287923 151.942412 
L 279.75778 151.860222 
L 434.827636 151.860222 
L 434.827636 151.860222 
" style="fill:none;stroke:#008000;stroke-dasharray:2,3.3;stroke-dashoffset:0;stroke-width:2;"/>
   </g>
   <g id="line2d_16">
    <path clip-path="url(#p4ebb65d11c)" d="M 99.700364 277.141274 
L 107.049646 277.291964 
L 113.664 277.644709 
L 120.278354 278.204676 
L 126.15778 278.839717 
L 134.976919 280.147883 
L 144.530986 281.95527 
L 154.819981 283.923821 
L 173.193187 287.194419 
L 173.928115 287.319273 
L 434.827636 287.319273 
L 434.827636 287.319273 
" style="fill:none;stroke:#800080;stroke-dasharray:12.8,3.2,2,3.2;stroke-dashoffset:0;stroke-width:2;"/>
   </g>
   <g id="patch_3">
    <path d="M 82.944 300.672 
L 82.944 6.912 
" style="fill:none;stroke:#000000;stroke-linecap:square;stroke-linejoin:miter;stroke-width:0.8;"/>
   </g>
   <g id="patch_4">
    <path d="M 451.584 300.672 
L 451.584 6.912 
" style="fill:none;stroke:#000000;stroke-linecap:square;stroke-linejoin:miter;stroke-width:0.8;"/>
   </g>
   <g id="patch_5">
    <path d="M 82.944 300.672 
L 451.584 300.672 
" style="fill:none;stroke:#000000;stroke-linecap:square;stroke-linejoin:miter;stroke-width:0.8;"/>
   </g>
   <g id="patch_6">
    <path d="M 82.944 6.912 
L 451.584 6.912 
" style="fill:none;stroke:#000000;stroke-linecap:square;stroke-linejoin:miter;stroke-width:0.8;"/>
   </g>
   <g id="legend_1">
    <g id="patch_7">
     <path d="M 94.144 102.512 
L 193.344 102.512 
Q 196.544 102.512 196.544 99.312 
L 196.544 18.112 
Q 196.544 14.912 193.344 14.912 
L 94.144 14.912 
Q 90.944 14.912 90.944 18.112 
L 90.944 99.312 
Q 90.944 102.512 94.144 102.512 
z
" style="fill:#ffffff;opacity:0.8;stroke:#cccccc;stroke-linejoin:miter;"/>
    </g>
    <g id="line2d_17">
     <path d="M 97.344 26.912 
L 129.344 26.912 
" style="fill:none;stroke:#ff0000;stroke-linecap:square;stroke-width:3;"/>
    </g>
    <g id="line2d_18"/>
    <g id="text_15">
     <!-- 集成策略 -->
     <defs>
      <path d="M 35.546875 76.953125 
Q 33.203125 75 31.640625 72.84375 
Q 30.078125 70.703125 28.90625 67.96875 
L 76.953125 67.96875 
Q 82.8125 67.96875 89.84375 68.359375 
L 89.84375 62.109375 
L 57.03125 62.109375 
L 57.03125 55.859375 
L 72.265625 55.859375 
Q 76.953125 55.859375 83.203125 56.25 
L 83.203125 49.609375 
Q 76.953125 50 72.265625 50 
L 57.03125 50 
L 57.03125 43.75 
L 73.046875 43.75 
Q 78.125 43.75 84.765625 44.140625 
L 84.765625 37.5 
Q 78.125 37.890625 73.046875 37.890625 
L 57.03125 37.890625 
L 57.03125 32.421875 
L 76.171875 32.421875 
Q 82.421875 32.421875 88.671875 32.8125 
L 88.671875 26.171875 
Q 82.8125 26.5625 76.5625 26.5625 
L 25.78125 26.5625 
L 25.78125 23.4375 
L 17.96875 23.4375 
Q 18.75 30.46875 18.75 36.328125 
L 18.75 54.296875 
Q 16.40625 50.78125 14.640625 48.828125 
Q 12.890625 46.875 10.546875 44.140625 
Q 7.8125 46.875 4.6875 48.828125 
Q 7.421875 51.953125 13.671875 59.765625 
Q 19.921875 67.578125 22.84375 72.65625 
Q 25.78125 77.734375 26.953125 81.640625 
Q 30.46875 79.6875 35.546875 76.953125 
z
M 46.484375 18.75 
Q 46.484375 20.3125 46.09375 25.390625 
L 54.296875 25.390625 
Q 53.90625 19.921875 53.90625 18.75 
L 78.90625 18.75 
Q 85.9375 18.75 92.578125 19.140625 
L 92.578125 12.890625 
L 64.84375 12.890625 
Q 70.3125 8.203125 76.953125 5.65625 
Q 83.59375 3.125 95.3125 0.390625 
Q 91.796875 -3.515625 90.234375 -7.421875 
Q 82.421875 -4.6875 77.53125 -2.53125 
Q 72.65625 -0.390625 68.546875 2.140625 
Q 64.453125 4.6875 61.71875 7.21875 
Q 58.984375 9.765625 55.859375 12.890625 
L 53.90625 12.890625 
L 53.90625 3.90625 
Q 53.90625 -4.296875 54.6875 -10.15625 
L 46.09375 -10.15625 
Q 46.484375 -4.6875 46.484375 3.90625 
L 46.484375 12.890625 
L 44.921875 12.890625 
Q 42.1875 8.984375 38.671875 5.859375 
Q 35.15625 2.734375 31.046875 0.1875 
Q 26.953125 -2.34375 22.265625 -4.6875 
Q 17.578125 -7.03125 10.9375 -8.984375 
Q 9.375 -5.078125 6.25 -1.171875 
Q 14.453125 0.78125 23.046875 4.09375 
Q 31.640625 7.421875 35.9375 12.890625 
L 7.8125 12.890625 
L 7.8125 19.140625 
Q 12.5 18.75 21.875 18.75 
z
M 49.21875 43.75 
L 49.21875 50 
L 25.78125 50 
L 25.78125 43.75 
z
M 49.21875 55.859375 
L 49.21875 62.109375 
L 25.78125 62.109375 
L 25.78125 55.859375 
z
M 49.21875 32.421875 
L 49.21875 37.890625 
L 25.78125 37.890625 
L 25.78125 32.421875 
z
M 53.90625 82.03125 
Q 55.859375 80.46875 58 78.125 
Q 60.15625 75.78125 62.5 72.65625 
Q 60.15625 70.703125 55.859375 68.359375 
Q 53.515625 71.484375 51.953125 73.4375 
Q 50.390625 75.390625 48.046875 77.34375 
Q 51.171875 79.296875 53.90625 82.03125 
z
" id="SimHei-96c6"/>
      <path d="M 54.6875 62.5 
Q 54.296875 73.828125 53.90625 81.640625 
Q 58.59375 81.25 62.890625 80.859375 
Q 62.109375 75.78125 62.5 62.5 
L 73.828125 62.5 
Q 82.03125 62.5 91.796875 62.890625 
L 91.796875 55.46875 
Q 81.640625 55.859375 73.828125 55.859375 
L 62.890625 55.859375 
Q 63.28125 41.015625 67.96875 23.4375 
Q 75.390625 34.765625 79.6875 49.609375 
Q 83.59375 46.484375 88.671875 44.140625 
Q 85.546875 40.625 81.640625 32.421875 
Q 77.734375 24.21875 71.484375 15.234375 
Q 75 8.203125 79.09375 4.09375 
Q 83.203125 0 84.765625 0.578125 
Q 86.328125 1.171875 87.890625 14.0625 
Q 91.796875 10.9375 96.09375 9.375 
Q 93.359375 -6.640625 90.03125 -8.390625 
Q 86.71875 -10.15625 82.03125 -8.390625 
Q 77.34375 -6.640625 73.234375 -1.75 
Q 69.140625 3.125 66.40625 8.984375 
Q 57.03125 -1.171875 42.578125 -10.15625 
Q 40.625 -6.640625 36.71875 -3.90625 
Q 44.53125 -0.390625 51.75 5.46875 
Q 58.984375 11.328125 62.5 16.40625 
Q 59.765625 23.828125 57.8125 34.5625 
Q 55.859375 45.3125 55.46875 55.859375 
L 21.875 55.859375 
L 21.875 42.1875 
L 47.265625 42.1875 
Q 46.484375 35.15625 46.09375 27.734375 
L 44.921875 12.109375 
Q 44.53125 4.6875 40.8125 3.125 
Q 37.109375 1.5625 28.125 0.78125 
Q 27.734375 4.296875 25 9.375 
Q 34.765625 8.984375 36.328125 10.546875 
Q 37.890625 12.109375 38.28125 19.53125 
L 39.0625 35.15625 
L 21.875 35.15625 
Q 21.875 19.921875 19.53125 9.765625 
Q 17.1875 -0.390625 10.9375 -8.984375 
Q 6.640625 -5.859375 3.125 -4.6875 
Q 8.203125 1.5625 10.15625 7.21875 
Q 12.109375 12.890625 13.078125 19.53125 
Q 14.0625 26.171875 14.25 38.28125 
Q 14.453125 50.390625 14.0625 62.5 
L 54.6875 62.5 
z
M 74.21875 81.640625 
Q 82.03125 75.390625 87.890625 69.140625 
Q 84.375 66.40625 81.640625 63.671875 
Q 76.953125 69.921875 69.140625 76.5625 
Q 71.875 78.90625 74.21875 81.640625 
z
" id="SimHei-6210"/>
      <path d="M 71.875 11.71875 
Q 70.703125 15.625 67.578125 19.921875 
Q 72.265625 19.921875 74.796875 20.3125 
Q 77.34375 20.703125 77.34375 23.4375 
L 77.34375 30.46875 
L 53.515625 30.46875 
L 53.515625 24.609375 
Q 56.640625 19.53125 61.71875 15.421875 
Q 66.796875 11.328125 72.265625 8.390625 
Q 77.734375 5.46875 83.203125 3.703125 
Q 88.671875 1.953125 96.09375 0.78125 
Q 91.40625 -3.125 89.453125 -8.203125 
Q 83.984375 -6.25 78.90625 -3.703125 
Q 73.828125 -1.171875 69.328125 1.5625 
Q 64.84375 4.296875 60.734375 7.609375 
Q 56.640625 10.9375 53.515625 14.84375 
L 53.515625 4.296875 
Q 53.515625 -1.171875 53.90625 -10.546875 
L 46.09375 -10.546875 
Q 46.484375 -1.171875 46.484375 4.296875 
L 46.484375 17.96875 
Q 42.1875 11.71875 35.546875 5.859375 
Q 28.90625 0 24.609375 -2.734375 
Q 20.3125 -5.46875 12.890625 -10.15625 
Q 11.328125 -7.421875 5.46875 -3.515625 
Q 10.546875 -1.5625 15.234375 0.78125 
Q 19.921875 3.125 25.78125 7.21875 
Q 31.640625 11.328125 37.296875 17.375 
Q 42.96875 23.4375 46.09375 30.46875 
L 23.4375 30.46875 
L 23.4375 12.890625 
L 15.625 12.890625 
Q 16.015625 20.703125 16.015625 26.171875 
Q 16.015625 31.640625 15.625 36.328125 
L 46.484375 36.328125 
L 46.484375 44.140625 
L 22.265625 44.140625 
Q 15.625 44.140625 8.59375 43.75 
L 8.59375 50.78125 
Q 15.625 50.390625 21.875 50.390625 
L 46.484375 50.390625 
Q 46.484375 54.296875 46.09375 57.03125 
L 53.90625 57.03125 
Q 53.515625 53.90625 53.515625 50.390625 
L 80.859375 50.390625 
Q 85.9375 50.390625 92.578125 50.78125 
L 92.578125 43.75 
Q 86.328125 44.140625 81.25 44.140625 
L 53.515625 44.140625 
L 53.515625 36.328125 
L 84.765625 36.328125 
Q 84.375 31.640625 84.375 26.953125 
Q 84.375 22.65625 83.984375 19.140625 
Q 83.59375 15.625 80.265625 14.0625 
Q 76.953125 12.5 71.875 11.71875 
z
M 70.703125 78.90625 
Q 67.1875 75.78125 65.625 73.046875 
L 80.859375 73.046875 
Q 87.5 73.046875 94.921875 73.4375 
L 94.921875 66.40625 
Q 87.5 66.796875 76.171875 66.796875 
Q 77.34375 62.890625 78.90625 57.421875 
Q 74.609375 56.640625 71.09375 55.46875 
Q 70.3125 62.109375 68.75 66.796875 
L 61.71875 66.796875 
Q 58.59375 62.5 55.078125 57.8125 
Q 51.5625 60.15625 48.046875 61.328125 
Q 52.734375 66.015625 56.4375 72.0625 
Q 60.15625 78.125 61.71875 82.8125 
Q 65.234375 80.46875 70.703125 78.90625 
z
M 30.46875 79.296875 
Q 26.5625 75.78125 24.21875 73.046875 
L 35.546875 73.046875 
Q 41.015625 73.046875 48.828125 73.4375 
L 48.828125 66.40625 
Q 41.015625 66.796875 34.375 66.796875 
Q 35.546875 62.5 37.109375 57.03125 
Q 33.59375 56.25 30.078125 54.6875 
Q 28.90625 60.15625 27.34375 66.796875 
L 20.3125 66.796875 
Q 16.015625 61.71875 10.15625 56.25 
Q 7.421875 58.59375 3.515625 60.9375 
Q 9.765625 65.234375 14.453125 71.28125 
Q 19.140625 77.34375 22.265625 82.8125 
Q 26.171875 80.859375 30.46875 79.296875 
z
" id="SimHei-7b56"/>
      <path d="M 41.40625 70.703125 
Q 41.015625 61.71875 41.015625 54.6875 
L 41.015625 19.53125 
Q 41.015625 12.890625 41.40625 3.515625 
L 34.375 3.515625 
L 34.375 8.59375 
L 13.671875 8.59375 
L 13.671875 1.171875 
L 6.25 1.171875 
Q 7.03125 7.421875 7.03125 15.234375 
L 7.03125 54.6875 
Q 7.03125 63.671875 6.25 70.703125 
L 41.40625 70.703125 
z
M 66.40625 78.515625 
Q 64.0625 76.171875 61.71875 70.703125 
L 87.890625 70.703125 
Q 85.546875 63.28125 81.4375 55.859375 
Q 77.34375 48.4375 72.265625 42.96875 
Q 76.5625 39.0625 83 36.90625 
Q 89.453125 34.765625 95.3125 33.984375 
Q 92.1875 29.6875 91.015625 26.171875 
Q 85.546875 27.34375 78.90625 30.265625 
Q 72.265625 33.203125 67.1875 37.890625 
Q 64.0625 35.546875 58.984375 32.03125 
Q 53.90625 28.515625 46.09375 25 
Q 44.53125 28.90625 41.796875 32.03125 
Q 47.65625 33.984375 52.140625 36.125 
Q 56.640625 38.28125 62.890625 43.359375 
Q 60.546875 46.484375 58.59375 50 
Q 56.640625 53.515625 55.078125 56.640625 
Q 52.734375 52.34375 48.4375 46.09375 
Q 46.875 48.4375 41.796875 50.78125 
Q 47.265625 56.640625 51.359375 65.421875 
Q 55.46875 74.21875 57.03125 82.03125 
Q 61.328125 80.078125 66.40625 78.515625 
z
M 85.9375 26.953125 
Q 85.546875 22.265625 85.546875 16.40625 
L 85.546875 1.171875 
Q 85.546875 -3.90625 85.9375 -9.765625 
L 78.515625 -9.765625 
L 78.515625 -2.34375 
L 58.203125 -2.34375 
L 58.203125 -10.15625 
L 50.78125 -10.15625 
Q 51.171875 -3.515625 51.171875 1.953125 
L 51.171875 16.015625 
Q 51.171875 21.875 50.78125 26.953125 
L 85.9375 26.953125 
z
M 78.515625 4.296875 
L 78.515625 20.703125 
L 58.203125 20.703125 
L 58.203125 4.296875 
z
M 67.96875 48.046875 
Q 73.828125 54.6875 78.125 64.84375 
L 58.984375 64.84375 
Q 62.109375 55.078125 67.96875 48.046875 
z
M 20.703125 14.84375 
L 20.703125 37.109375 
L 13.671875 37.109375 
L 13.671875 14.84375 
z
M 34.375 14.84375 
L 34.375 37.109375 
L 27.34375 37.109375 
L 27.34375 14.84375 
z
M 20.703125 43.359375 
L 20.703125 64.84375 
L 13.671875 64.84375 
L 13.671875 43.359375 
z
M 34.375 43.359375 
L 34.375 64.84375 
L 27.34375 64.84375 
L 27.34375 43.359375 
z
" id="SimHei-7565"/>
     </defs>
     <g transform="translate(142.144 32.512)scale(0.12 -0.12)">
      <use xlink:href="#SimHei-96c6"/>
      <use x="100" xlink:href="#SimHei-6210"/>
      <use x="200" xlink:href="#SimHei-7b56"/>
      <use x="300" xlink:href="#SimHei-7565"/>
     </g>
    </g>
    <g id="line2d_19">
     <path d="M 97.344 47.612 
L 129.344 47.612 
" style="fill:none;stroke:#0000ff;stroke-dasharray:7.4,3.2;stroke-dashoffset:0;stroke-width:2;"/>
    </g>
    <g id="line2d_20"/>
    <g id="text_16">
     <!-- 子策略 1 -->
     <defs>
      <path d="M 32.421875 0.390625 
Q 41.40625 0 43.75 0.96875 
Q 46.09375 1.953125 46.09375 5.859375 
L 46.09375 34.375 
L 18.359375 34.375 
Q 12.890625 34.375 5.46875 33.984375 
L 5.46875 41.015625 
Q 12.890625 40.625 18.359375 40.625 
L 46.09375 40.625 
Q 46.09375 46.875 45.703125 54.6875 
Q 51.171875 57.03125 56.828125 60.546875 
Q 62.5 64.0625 69.921875 68.75 
L 30.078125 68.75 
Q 21.875 68.75 15.625 68.359375 
L 15.625 75.390625 
Q 23.828125 75 29.296875 75 
L 84.375 75 
L 84.375 67.96875 
Q 78.515625 65.625 71.484375 61.71875 
Q 64.453125 57.8125 53.90625 50.78125 
L 53.90625 40.625 
L 80.078125 40.625 
Q 86.71875 40.625 94.921875 41.40625 
L 94.921875 34.375 
Q 86.71875 34.765625 80.078125 34.375 
L 53.90625 34.375 
L 53.90625 3.125 
Q 53.90625 -4.6875 49.40625 -6.25 
Q 44.921875 -7.8125 35.9375 -8.59375 
Q 35.15625 -4.296875 32.421875 0.390625 
z
" id="SimHei-5b50"/>
      <path id="SimHei-20"/>
     </defs>
     <g transform="translate(142.144 53.212)scale(0.12 -0.12)">
      <use xlink:href="#SimHei-5b50"/>
      <use x="100" xlink:href="#SimHei-7b56"/>
      <use x="200" xlink:href="#SimHei-7565"/>
      <use x="300" xlink:href="#SimHei-20"/>
      <use x="350" xlink:href="#SimHei-31"/>
     </g>
    </g>
    <g id="line2d_21">
     <path d="M 97.344 68.312 
L 129.344 68.312 
" style="fill:none;stroke:#008000;stroke-dasharray:2,3.3;stroke-dashoffset:0;stroke-width:2;"/>
    </g>
    <g id="line2d_22"/>
    <g id="text_17">
     <!-- 子策略 2 -->
     <g transform="translate(142.144 73.912)scale(0.12 -0.12)">
      <use xlink:href="#SimHei-5b50"/>
      <use x="100" xlink:href="#SimHei-7b56"/>
      <use x="200" xlink:href="#SimHei-7565"/>
      <use x="300" xlink:href="#SimHei-20"/>
      <use x="350" xlink:href="#SimHei-32"/>
     </g>
    </g>
    <g id="line2d_23">
     <path d="M 97.344 89.012 
L 129.344 89.012 
" style="fill:none;stroke:#800080;stroke-dasharray:12.8,3.2,2,3.2;stroke-dashoffset:0;stroke-width:2;"/>
    </g>
    <g id="line2d_24"/>
    <g id="text_18">
     <!-- 子策略 3 -->
     <g transform="translate(142.144 94.612)scale(0.12 -0.12)">
      <use xlink:href="#SimHei-5b50"/>
      <use x="100" xlink:href="#SimHei-7b56"/>
      <use x="200" xlink:href="#SimHei-7565"/>
      <use x="300" xlink:href="#SimHei-20"/>
      <use x="350" xlink:href="#SimHei-33"/>
     </g>
    </g>
   </g>
  </g>
 </g>
 <defs>
  <clipPath id="p4ebb65d11c">
   <rect height="293.76" width="368.64" x="82.944" y="6.912"/>
  </clipPath>
 </defs>
</svg>
